<?xml version="1.0" standalone="no"?>
<!DOCTYPE svg PUBLIC "-//W3C//DTD SVG 1.1//EN" "http://www.w3.org/Graphics/SVG/1.1/DTD/svg11.dtd" >
<svg xmlns="http://www.w3.org/2000/svg">
<metadata>
Created by FontForge 20120731 at Wed May 18 09:56:08 2016
 By admin
</metadata>
<defs>
<font id="iconfont" horiz-adv-x="1024" >
  <font-face 
    font-family="iconfont"
    font-weight="500"
    font-stretch="normal"
    units-per-em="1024"
    panose-1="2 0 6 3 0 0 0 0 0 0"
    ascent="896"
    descent="-128"
    x-height="792"
    bbox="0 -212 1321 896"
    underline-thickness="50"
    underline-position="-100"
    unicode-range="U+0078-E6FF"
  />
<missing-glyph horiz-adv-x="374" 
d="M34 0v682h272v-682h-272zM68 34h204v614h-204v-614z" />
    <glyph glyph-name=".notdef" horiz-adv-x="374" 
d="M34 0v682h272v-682h-272zM68 34h204v614h-204v-614z" />
    <glyph glyph-name=".null" horiz-adv-x="0" 
 />
    <glyph glyph-name="nonmarkingreturn" horiz-adv-x="341" 
 />
    <glyph glyph-name="x" unicode="x" horiz-adv-x="1001" 
d="M281 543q-27 -1 -53 -1h-83q-18 0 -36.5 -6t-32.5 -18.5t-23 -32t-9 -45.5v-76h912v41q0 16 -0.5 30t-0.5 18q0 13 -5 29t-17 29.5t-31.5 22.5t-49.5 9h-133v-97h-438v97zM955 310v-52q0 -23 0.5 -52t0.5 -58t-10.5 -47.5t-26 -30t-33 -16t-31.5 -4.5q-14 -1 -29.5 -0.5
t-29.5 0.5h-32l-45 128h-439l-44 -128h-29h-34q-20 0 -45 1q-25 0 -41 9.5t-25.5 23t-13.5 29.5t-4 30v167h911zM163 247q-12 0 -21 -8.5t-9 -21.5t9 -21.5t21 -8.5q13 0 22 8.5t9 21.5t-9 21.5t-22 8.5zM316 123q-8 -26 -14 -48q-5 -19 -10.5 -37t-7.5 -25t-3 -15t1 -14.5
t9.5 -10.5t21.5 -4h37h67h81h80h64h36q23 0 34 12t2 38q-5 13 -9.5 30.5t-9.5 34.5q-5 19 -11 39h-368zM336 498v228q0 11 2.5 23t10 21.5t20.5 15.5t34 6h188q31 0 51.5 -14.5t20.5 -52.5v-227h-327z" />
    <glyph glyph-name="uniE600" unicode="&#xe600;" 
d="M679 384l-399 399q-8 9 -8 20.5t8 20t20 8.5t20 -8l415 -415q1 0 3.5 -1t3.5 -2q9 -9 8 -22q1 -13 -8 -22q-1 -1 -3.5 -1.5t-3.5 -1.5l-415 -414q-8 -8 -20 -8t-20 8t-8 20t8 20z" />
    <glyph glyph-name="uniE601" unicode="&#xe601;" 
d="M528 393zM301 392.5q0 93.5 66.5 160t160 66.5t160 -66.5t66.5 -160t-66.5 -160t-160 -66.5t-160 66.5t-66.5 160z" />
    <glyph glyph-name="uniE602" unicode="&#xe602;" 
d="M512 832q-187 0 -317.5 -130.5t-130.5 -317.5t130.5 -317.5t317.5 -130.5t317.5 130.5t130.5 317.5t-130.5 317.5t-317.5 130.5zM768 128q-109 -109 -256 -109t-256 109t-109 256t109 256t256 109t256 -109t109 -256t-109 -256zM730 288l-192 115v231q0 19 -20 19h-19
q-8 0 -13.5 -6.5t-5.5 -12.5v-250q0 -5 4 -12t9 -7l205 -128q17 -9 32 6l12 19q0 20 -12 26z" />
    <glyph glyph-name="uniE603" unicode="&#xe603;" 
d="M741 163q1 3 5 16t5 18.5t4 26.5t2 40.5t-1 60.5q59 59 102.5 133.5t63.5 133t31.5 121.5t13 87.5t1.5 40.5v1v0h-1q-16 0 -40.5 -1.5t-87.5 -13t-121.5 -32t-133 -63.5t-132.5 -102q-42 0 -61.5 1t-40.5 -2t-26.5 -4t-18 -5t-16.5 -5q-39 -11 -113.5 -89t-84.5 -116
q-5 -17 0 -29.5t17.5 -18t21.5 -8t19 -3.5q6 0 38.5 1.5t60 1t31.5 -6.5q17 -11 18 -41q0 -23 10.5 -51t26.5 -47v0v-1l1 1q18 -16 46 -26.5t51 -11.5q13 0 23.5 -4.5t13.5 -8.5l4 -4q6 -4 7 -31.5t-1 -60t-2 -38.5q1 -10 3.5 -19t8 -21.5t18 -17.5t29.5 0q38 10 116 84.5
t89 113.5zM596 470q-30 30 -30 72.5t30 72t72.5 29.5t72.5 -29.5t30 -72t-30 -72.5t-72.5 -30t-72.5 30zM359 126q-43 7 -72 36q-29 28 -35 71q-4 21 -14.5 31t-24.5 8t-46 -37.5t-35 -51.5q-2 -10 5.5 -13.5t21 -6t20.5 -8.5q19 -18 -15 -87q-12 -24 -4 -34q9 -8 33 5
q69 34 87 14q6 -6 8.5 -19.5t6 -21t13.5 -5.5q17 3 52 35t37 46t-8 24.5t-30 13.5z" />
    <glyph glyph-name="uniE604" unicode="&#xe604;" 
d="M527 -11l-160 269q-174 -67 -234 -107q-27 -18 -48.5 -60t-30 -70.5t-8.5 -33.5h963q-1 5 -2.5 13t-8.5 30.5t-16 42.5t-25.5 42t-36.5 36q-26 18 -84.5 45t-103.5 45l-45 17zM527 205l-54 -54l27 -54l-80 -108h213l-80 108l27 54zM532.5 822q38.5 0 70 -6.5t54.5 -16.5
t41 -27.5t29.5 -33t19.5 -39t12 -40t6 -42.5t2.5 -39.5t0.5 -36.5q0 -39 -17.5 -88t-47 -94t-75 -76t-96 -31t-96 30.5t-75 76t-47 94.5t-17.5 88v37q0 13 2.5 39t6.5 42.5t12 40t19.5 39t29.5 33t41 27.5t54.5 16.5t70 6.5z" />
    <glyph glyph-name="uniE605" unicode="&#xe605;" 
d="M893 768q29 0 49 -20t20 -49v-52q0 -29 -20 -48.5t-49 -19.5h-760q-29 0 -48.5 19.5t-19.5 48.5v52q0 29 19.5 49t48.5 20h760zM893 447q29 0 49 -19.5t20 -48.5v-52q0 -29 -20 -49t-49 -20h-760q-29 0 -48.5 20t-19.5 49v52q0 29 19.5 48.5t48.5 19.5h760zM893 127
q29 0 49 -20t20 -49v-52q0 -29 -20 -48.5t-49 -19.5h-760q-29 0 -48.5 19.5t-19.5 48.5v52q0 29 19.5 49t48.5 20h760z" />
    <glyph glyph-name="uniE606" unicode="&#xe606;" 
d="M881 376l-483 520h-223l483 -520l-483 -484h223z" />
    <glyph glyph-name="uniE607" unicode="&#xe607;" 
d="M658 -108h223l-483 484l483 520h-223l-483 -520z" />
    <glyph glyph-name="uniE608" unicode="&#xe608;" 
d="M96 0q-13 0 -22.5 9.5t-9.5 22.5v448q0 13 9.5 22.5t22.5 9.5t22.5 -9.5t9.5 -22.5v-448q0 -13 -9.5 -22.5t-22.5 -9.5zM864 512h-189q12 28 19.5 83t0.5 107q-5 45 -30 77.5t-63 45.5q-29 10 -56.5 6t-43.5 -21q-12 -12 -22 -35t-15 -41t-14 -52q-17 -70 -28 -89
q-14 -23 -40 -43t-41 -27t-28 -11h-90q-13 0 -22.5 -9.5t-9.5 -22.5v-448q0 -13 9.5 -22.5t22.5 -9.5h87q22 -12 49 -24t83.5 -26t108.5 -14h216q33 0 68.5 13t51 38.5t44 207.5t28.5 220q0 39 -31 68t-65 29zM833 21q-4 -7 -24.5 -14t-40.5 -7h-216q-23 0 -47.5 3.5t-45 9
t-40 12.5t-34 14t-25.5 12.5t-18 8.5l-6 4h-16h-64v384h64q1 0 7 2h1h1h2h1l1 1q12 4 26 10.5t37 19.5t45.5 34t36.5 46q16 26 35 105q21 85 34 99q3 3 12.5 3t24.5 -4q41 -17 48 -70q5 -46 -4 -98.5t-16 -72t-12 -30.5q-7 -16 2 -31q9 -14 27 -14h235q8 0 20 -10.5
t12 -22.5q0 -33 -26.5 -202.5t-36.5 -191.5z" />
    <glyph glyph-name="uniE609" unicode="&#xe609;" 
d="M888 598q-10 9 -23 8.5t-22 -10.5l-427 -454l-233 230q-10 9 -23 9t-22.5 -9.5t-9.5 -23t10 -22.5l256 -253h1q1 -1 7 -4q0 -1 1 -1.5t2 -1.5q6 -2 12 -2t12 3q1 0 2 1t2 1q5 3 7 5v0l449 479q9 9 9 22.5t-10 22.5z" />
    <glyph glyph-name="uniE60A" unicode="&#xe60a;" 
d="M557 383l266 264q9 9 9 22t-9.5 22.5t-22.5 9.5t-23 -9l-265 -264l-263 264q-9 9 -22.5 9t-23 -9t-9.5 -22.5t10 -22.5l263 -264l-265 -264q-10 -9 -10 -22.5t9.5 -22.5t22.5 -9t23 9l265 264l265 -267q10 -9 23 -9t22.5 9.5t9.5 22.5t-9 23z" />
    <glyph glyph-name="uniE60B" unicode="&#xe60b;" 
d="M800 -64h-576q-40 0 -68 28t-28 68v640q0 40 28 68t68 28h448q13 0 22.5 -9.5t9.5 -22.5t-9.5 -22.5t-22.5 -9.5h-448q-13 0 -22.5 -9.5t-9.5 -22.5v-640q0 -13 9.5 -22.5t22.5 -9.5h576q13 0 22.5 9.5t9.5 22.5v512q0 13 9.5 22.5t22.5 9.5t22.5 -9.5t9.5 -22.5v-512
q0 -40 -28 -68t-68 -28zM612 448q-13 0 -22.5 9.5t-9.5 22.5t9 23l318 318q10 9 23 9t22.5 -9.5t9.5 -22.5t-9 -23l-318 -318q-10 -9 -23 -9zM480 448h-192q-13 0 -22.5 9.5t-9.5 22.5t9.5 22.5t22.5 9.5h192q13 0 22.5 -9.5t9.5 -22.5t-9.5 -22.5t-22.5 -9.5zM672 256h-384
q-13 0 -22.5 9.5t-9.5 22.5t9.5 22.5t22.5 9.5h384q13 0 22.5 -9.5t9.5 -22.5t-9.5 -22.5t-22.5 -9.5z" />
    <glyph glyph-name="uniE60C" unicode="&#xe60c;" 
d="M511 -64q-91 0 -174 35.5t-143 95.5t-95.5 143t-35.5 174t35.5 174t95.5 143t143 95.5t174 35.5t174 -35.5t143 -95.5t95.5 -143t35.5 -174t-35.5 -174t-95.5 -143t-143 -95.5t-174 -35.5zM511 768q-104 0 -192.5 -51.5t-140 -140t-51.5 -192.5t51.5 -192.5t140 -140
t192.5 -51.5t192.5 51.5t140 140t51.5 192.5t-51.5 192.5t-140 140t-192.5 51.5zM512 123q-67 0 -126.5 29t-100.5 81q-8 11 -6.5 24t12 21t23.5 6.5t21 -11.5q33 -41 79 -63.5t98 -22.5q53 0 99.5 22.5t78.5 64.5q8 11 21 12.5t23.5 -6.5t12.5 -21t-7 -24
q-41 -53 -100.5 -82.5t-127.5 -29.5zM368 381q-20 0 -34 14t-14 34v64q0 20 14 34t34 14t34 -14t14 -34v-64q0 -20 -14 -34t-34 -14zM656 381q-20 0 -34 14t-14 34v64q0 20 14 34t34 14t34 -14t14 -34v-64q0 -20 -14 -34t-34 -14z" />
    <glyph glyph-name="uniE60D" unicode="&#xe60d;" 
d="M957 491.5q-6 18.5 -25 21.5l-271 42l-120 259q-9 18 -29 18q-21 0 -29 -18l-122 -258l-271 -41q-19 -3 -25.5 -21.5t7.5 -32.5l196 -202l-47 -285q-3 -20 13.5 -31.5t33.5 -1.5l242 133l242 -134q7 -4 15 -4h1q13 0 22.5 9.5t9.5 22.5q0 6 -2 11l-45 279l197 201
q13 14 7 32.5z" />
    <glyph glyph-name="uniE60E" unicode="&#xe60e;" 
d="M767 -64q-8 0 -15 4l-242 134l-242 -133q-17 -10 -33.5 1.5t-13.5 31.5l47 285l-196 202q-14 14 -8 32.5t25 21.5l156 26q13 3 23.5 -5t13 -21t-5.5 -23.5t-21 -13.5l-95 -16l166 -170q11 -12 8 -28l-39 -235l200 110q15 8 31 -1l199 -110l-38 236q-3 16 9 27l164 169
l-225 34q-17 3 -24 18l-100 213l-100 -212q-5 -12 -17.5 -16.5t-24.5 1t-16.5 18t0.5 24.5l130 274q8 18 29 18q20 0 29 -18l120 -259l271 -42q19 -3 25 -21.5t-7 -32.5l-197 -201l46 -285q3 -20 -14 -31q-8 -6 -18 -6z" />
    <glyph glyph-name="uniE60F" unicode="&#xe60f;" 
d="M518.5 258q-88.5 0 -151.5 73.5t-63 177t63 177t151.5 73.5t151 -73.5t62.5 -177t-62.5 -177t-151 -73.5zM518 683q-57 0 -97.5 -51t-40.5 -123.5t40.5 -123.5t97.5 -51t97.5 51t40.5 123.5t-40.5 123.5t-97.5 51zM608 -123h-42h-96q-54 0 -81 0.5t-65 5t-63.5 16.5
t-45.5 32q-51 50 -51 155q0 77 55 141q10 12 26 13.5t27.5 -9t13 -26t-8.5 -27.5q-37 -43 -37 -92q0 -74 28 -102q16 -15 49.5 -22.5t62.5 -8.5t90 0h97q59 -1 89 0t63 8.5t49 22.5q28 28 28 102q0 17 -12.5 46t-27.5 42q-12 11 -13 26.5t9 27.5t25.5 13t27.5 -10
q29 -25 48 -68t19 -77q0 -105 -51 -155q-33 -33 -83 -43.5t-130 -10.5z" />
    <glyph glyph-name="uniE610" unicode="&#xe610;" 
d="M512 832q-146 0 -249 -103t-103 -249q0 -53 34 -127.5t76.5 -136.5t98 -130.5t80 -95.5t40.5 -44q9 -10 23 -10h1q14 0 23 11l109 125q219 268 219 408q0 146 -103 249t-249 103zM512 320q-66 0 -113 47t-47 113t47 113t113 47t113 -47t47 -113t-47 -113t-113 -47z" />
    <glyph glyph-name="uniE611" unicode="&#xe611;" 
d="M512 288q-79 0 -135.5 56.5t-56.5 135.5t56.5 135.5t135.5 56.5t135.5 -56.5t56.5 -135.5t-56.5 -135.5t-135.5 -56.5zM512 608q-53 0 -90.5 -37.5t-37.5 -90.5t37.5 -90.5t90.5 -37.5t90.5 37.5t37.5 90.5t-37.5 90.5t-90.5 37.5zM512 -64q-13 0 -22 9q-10 9 -10 22.5
t9 22.5q39 41 86 97.5t100.5 129.5t89 144.5t35.5 118.5q0 119 -84.5 203.5t-203.5 84.5t-203.5 -84.5t-84.5 -203.5q0 -57 52.5 -151.5t151.5 -215.5q9 -11 7.5 -24t-12 -21.5t-23.5 -7t-21 11.5q-219 268 -219 408q0 146 103 249t249 103t249 -103t103 -249
q0 -53 -34 -127.5t-76.5 -136.5t-98 -130.5t-80 -95.5t-40.5 -44q-9 -10 -23 -10z" />
    <glyph glyph-name="uniE612" unicode="&#xe612;" 
d="M369 66v-1q-4 0 -8.5 -0.5t-5.5 -0.5h-3q-52 0 -89 36.5t-38 88.5q-2 53 34 91q37 39 89 40h2h2q40 0 74 -24q46 -16 92 45t19 95q-9 7 -18 17q-2 1 -3 3q-31 35 -33 80q-1 53 35 91t89 40h1h3q44 0 78.5 -28t44.5 -71q6 -18 8 -43t-1.5 -68t-28 -100.5t-68.5 -116.5
q-41 -55 -85 -93t-81.5 -54t-62.5 -21.5t-46 -5.5zM365 130q9 0 20.5 1t36.5 9t49 22.5t57.5 44.5t64.5 71q38 52 59.5 101.5t24 85.5t1 54.5t-5.5 31.5q-5 23 -22.5 37.5t-39.5 14.5q-27 -1 -45 -20t-18 -45q1 -23 17 -40v-1q6 -6 12 -10q4 -3 6 -6q10 -10 16.5 -24
t11 -36.5t-5.5 -53.5t-35 -64q-55 -74 -124 -74q-24 0 -47 9q-4 2 -8 5q-17 14 -38 14q-28 -1 -46 -20t-17 -45q0 -26 18.5 -44t44.5 -18q1 1 3 1q6 0 10 -1zM512 -67q-91 0 -174 35q-12 5 -17 17t0 24.5t17.5 17.5t24.5 0q71 -30 149 -30q104 0 192.5 51.5t140 140
t51.5 192.5t-51.5 192.5t-140 140t-192.5 51.5t-192.5 -51.5t-140 -140t-51.5 -192.5q0 -111 59 -204q7 -11 4 -24t-14.5 -20t-24.5 -4t-20 14q-68 109 -68 238q0 91 35.5 174t95.5 143t143 95.5t174 35.5t174 -35.5t143 -95.5t95.5 -143t35.5 -174t-35.5 -174t-95.5 -143
t-143 -95.5t-174 -35.5z" />
    <glyph glyph-name="uniE613" unicode="&#xe613;" 
d="M512 830q-91 0 -173.5 -35.5t-142 -95t-95 -142t-35.5 -173.5t35.5 -173.5t95 -142t142 -95t173.5 -35.5t173.5 35.5t142 95t95 142t35.5 173.5t-35.5 173.5t-95 142t-142 95t-173.5 35.5zM727 458l-256 -259v-1q-2 -1 -7 -4q-1 -1 -2 -1.5t-2 -1.5q-6 -2 -12 -2t-12 2
q-1 1 -2 1.5t-1 1.5q-6 3 -7 4v1h-1l-126 129q-9 10 -9 23t9.5 22.5t23 9t22.5 -9.5l103 -106l234 236q9 9 22.5 9t22.5 -9t9.5 -22.5t-9.5 -22.5z" />
    <glyph glyph-name="uniE614" unicode="&#xe614;" 
d="M512 -64q-185 0 -316.5 131.5t-131.5 316.5t131.5 316.5t316.5 131.5t316.5 -131.5t131.5 -316.5t-131.5 -316.5t-316.5 -131.5zM512 768q-104 0 -192.5 -51.5t-140 -140t-51.5 -192.5t51.5 -192.5t140 -140t192.5 -51.5t192.5 51.5t140 140t51.5 192.5t-51.5 192.5
t-140 140t-192.5 51.5zM727 502.5q-9 9.5 -22.5 9.5t-22.5 -9l-234 -236l-103 106q-9 9 -22.5 9.5t-23 -9t-9.5 -22.5t9 -23l126 -129h1v-1q1 -1 7 -4q0 -1 1 -1.5t2 -1.5q6 -2 12 -2t12 2q1 1 2 1.5t2 1.5q5 3 7 4v1l256 259q10 9 9.5 22t-9.5 22.5z" />
    <glyph glyph-name="uniE615" unicode="&#xe615;" 
d="M512 832q-185 0 -316.5 -131.5t-131.5 -316.5t131.5 -316.5t316.5 -131.5t316.5 131.5t131.5 316.5t-131.5 316.5t-316.5 131.5zM695 246q9 -9 9 -22.5t-9.5 -23t-22.5 -9.5t-23 10l-137 138l-138 -137q-10 -9 -23 -9t-22.5 9.5t-9.5 22.5t10 23l138 136l-138 138
q-9 9 -9 22.5t9.5 23t22.5 9.5t23 -10l137 -138l138 137q10 9 23 9t22.5 -9.5t9.5 -22.5t-10 -23l-138 -136z" />
    <glyph glyph-name="uniE616" unicode="&#xe616;" 
d="M512 -64q-185 0 -316.5 131.5t-131.5 316.5t131.5 316.5t316.5 131.5t316.5 -131.5t131.5 -316.5t-131.5 -316.5t-316.5 -131.5zM512 768q-104 0 -192.5 -51.5t-140 -140t-51.5 -192.5t51.5 -192.5t140 -140t192.5 -51.5t192.5 51.5t140 140t51.5 192.5t-51.5 192.5
t-140 140t-192.5 51.5zM557 383l138 136q10 10 10 23t-9.5 22.5t-22.5 9.5t-23 -9l-138 -137l-137 137q-9 9 -22 9t-22.5 -9t-9.5 -22.5t9 -22.5l136 -137l-137 -136q-9 -9 -9.5 -22.5t9 -23t22.5 -9.5q14 0 23 10l138 136l138 -140q10 -9 23 -9t22.5 9.5t9.5 22.5t-9 23z
" />
    <glyph glyph-name="uniE617" unicode="&#xe617;" 
d="M512 832q-185 0 -316.5 -131.5t-131.5 -316.5t131.5 -316.5t316.5 -131.5t316.5 131.5t131.5 316.5t-131.5 316.5t-316.5 131.5zM662 360l-160 -158q-10 -10 -23 -10t-22.5 9.5t-9.5 23t10 22.5l137 136l-136 137q-10 9 -10 22.5t9.5 22.5t23 9t22.5 -9l159 -160v0
q4 -4 7 -10q8 -20 -7 -35z" />
    <glyph glyph-name="uniE618" unicode="&#xe618;" 
d="M512 -64q-185 0 -316.5 131.5t-131.5 316.5t131.5 316.5t316.5 131.5t316.5 -131.5t131.5 -316.5t-131.5 -316.5t-316.5 -131.5zM512 768q-159 0 -271.5 -112.5t-112.5 -271.5t112.5 -271.5t271.5 -112.5t271.5 112.5t112.5 271.5t-112.5 271.5t-271.5 112.5zM669 395
q-3 6 -7 10v0l-159 160q-9 9 -22.5 9t-23 -9t-9.5 -22.5t10 -22.5l136 -137l-138 -136q-9 -9 -9 -22.5t9.5 -23t22.5 -9.5t22 10l161 158q15 15 7 35z" />
    <glyph glyph-name="uniE619" unicode="&#xe619;" 
d="M954 -12l-153 163q96 116 96 265q0 113 -56 209t-151.5 151.5t-208.5 55.5t-209 -55.5t-151.5 -151.5t-55.5 -209t55.5 -208.5t151.5 -151.5t209 -56q90 0 172 37q12 6 16.5 18.5t-1 24.5t-18 16.5t-24.5 -0.5q-69 -32 -145 -32q-96 0 -177 47.5t-128 128.5t-47 176.5
t47 176.5t128 128t176.5 47t176.5 -47t128.5 -128t47.5 -177q0 -141 -98 -244q-9 -9 -9 -22.5t10 -22.5l1 -1t1.5 -1t1.5 -1.5t1 -2.5l166 -177q9 -10 23 -10q13 0 22 9q10 9 10.5 22t-8.5 23z" />
    <glyph glyph-name="uniE61A" unicode="&#xe61a;" 
d="M512 832q-185 0 -316.5 -131.5t-131.5 -316.5t131.5 -316.5t316.5 -131.5t316.5 131.5t131.5 316.5t-131.5 316.5t-316.5 131.5zM671 320h-191q-13 0 -22.5 9.5t-9.5 22.5v255q0 13 9.5 22.5t22.5 9.5t22.5 -9.5t9.5 -22.5v-223h159q14 0 23 -9.5t9 -22.5t-9 -22.5
t-23 -9.5z" />
    <glyph glyph-name="uniE61B" unicode="&#xe61b;" 
d="M512 832q-185 0 -316.5 -131.5t-131.5 -316.5t131.5 -316.5t316.5 -131.5t316.5 131.5t131.5 316.5t-131.5 316.5t-316.5 131.5zM512 0q-104 0 -192.5 51.5t-140 140t-51.5 192.5t51.5 192.5t140 140t192.5 51.5t192.5 -51.5t140 -140t51.5 -192.5t-51.5 -192.5
t-140 -140t-192.5 -51.5zM672 384h-160v224q0 13 -9.5 22.5t-22.5 9.5t-22.5 -9.5t-9.5 -22.5v-256q0 -13 9.5 -22.5t22.5 -9.5h192q13 0 22.5 9.5t9.5 22.5t-9.5 22.5t-22.5 9.5z" />
    <glyph glyph-name="uniE61C" unicode="&#xe61c;" 
d="M890.5 565q-9.5 9 -23 9t-22.5 -9l-328 -331l-332 329q-10 10 -23 10t-22.5 -9.5t-9.5 -23t10 -22.5l353 -350h1l1 -1v-1q10 -9 23 -9t22 9l350 354q10 9 10 22.5t-9.5 22.5z" />
    <glyph glyph-name="uniE61D" unicode="&#xe61d;" 
d="M943 127l-341 609q-35 63 -90.5 63t-90.5 -63l-340 -609q-34 -62 -6 -111q29 -48 100 -48h674q71 0 99.5 48.5t-5.5 110.5zM480 576q0 13 9.5 22.5t22.5 9.5t22.5 -9.5t9.5 -22.5v-288q0 -13 -9.5 -22.5t-22.5 -9.5t-22.5 9.5t-9.5 22.5v288zM512 64q-20 0 -34 14t-14 34
t14 34t34 14t34 -14t14 -34t-14 -34t-34 -14z" />
    <glyph glyph-name="uniE61E" unicode="&#xe61e;" 
d="M849 -33h-674q-71 0 -99.5 49t5.5 111l340 609q35 63 90.5 63t90.5 -63l341 -609q34 -63 5.5 -111.5t-99.5 -48.5zM512 735q-18 0 -35 -30l-340 -610q-17 -30 -7 -47t45 -17h674q35 0 45 17t-7 47l-341 610q-16 30 -34 30zM512 256q-13 0 -22.5 9.5t-9.5 22.5v288
q0 13 9.5 22.5t22.5 9.5t22.5 -9.5t9.5 -22.5v-288q0 -13 -9.5 -22.5t-22.5 -9.5zM512 144zM464 144q0 20 14 34t34 14t34 -14t14 -34t-14 -34t-34 -14t-34 14t-14 34z" />
    <glyph glyph-name="uniE61F" unicode="&#xe61f;" 
d="M864 704h-352q0 40 -28 68t-68 28h-64q-40 0 -68 -28t-28 -68h-96q-40 0 -68 -28t-28 -68v-512q0 -40 28 -68t68 -28h704q40 0 68 28t28 68v512q0 40 -28 68t-68 28zM512 160q-79 0 -135.5 56.5t-56.5 135.5t56.5 135.5t135.5 56.5t135.5 -56.5t56.5 -135.5t-56.5 -135.5
t-135.5 -56.5zM816 480q-20 0 -34 14t-14 34t14 34t34 14t34 -14t14 -34t-14 -34t-34 -14z" />
    <glyph glyph-name="uniE620" unicode="&#xe620;" 
d="M512 160q-79 0 -135.5 56.5t-56.5 135.5t56.5 135.5t135.5 56.5t135.5 -56.5t56.5 -135.5t-56.5 -135.5t-135.5 -56.5zM512 480q-53 0 -90.5 -37.5t-37.5 -90.5t37.5 -90.5t90.5 -37.5t90.5 37.5t37.5 90.5t-37.5 90.5t-90.5 37.5zM864 0h-704q-40 0 -68 28t-28 68v512
q0 40 28 68t68 28h96q13 0 22.5 -9.5t9.5 -22.5t-9.5 -22.5t-22.5 -9.5h-96q-13 0 -22.5 -9.5t-9.5 -22.5v-512q0 -13 9.5 -22.5t22.5 -9.5h704q13 0 22.5 9.5t9.5 22.5v512q0 13 -9.5 22.5t-22.5 9.5h-352q-13 0 -22.5 9.5t-9.5 22.5t9.5 22.5t22.5 9.5h352q40 0 68 -28
t28 -68v-512q0 -40 -28 -68t-68 -28zM816 560zM768 560q0 20 14 34t34 14t34 -14t14 -34t-14 -34t-34 -14t-34 14t-14 34zM480 768q0 -13 -9.5 -22.5t-22.5 -9.5h-128q-13 0 -22.5 9.5t-9.5 22.5t9.5 22.5t22.5 9.5h128q13 0 22.5 -9.5t9.5 -22.5z" />
    <glyph glyph-name="uniE621" unicode="&#xe621;" 
d="M832 768h-640q-40 0 -68 -28t-28 -68v-512q0 -40 28 -68t68 -28h211l86 -87q10 -9 23 -9t23 9l86 87h211q40 0 68 28t28 68v512q0 40 -28 68t-68 28zM336 384q-20 0 -34 14t-14 34t14 34t34 14t34 -14t14 -34t-14 -34t-34 -14zM528 384q-20 0 -34 14t-14 34t14 34t34 14
t34 -14t14 -34t-14 -34t-34 -14zM720 384q-20 0 -34 14t-14 34t14 34t34 14t34 -14t14 -34t-14 -34t-34 -14z" />
    <glyph glyph-name="uniE622" unicode="&#xe622;" 
d="M512 -32q-13 0 -23 9l-96 96q-9 10 -9 23t9.5 22.5t22.5 9.5t23 -9l73 -74l73 74q10 9 23 9h224q13 0 22.5 9.5t9.5 22.5v512q0 13 -9.5 22.5t-22.5 9.5h-640q-13 0 -22.5 -9.5t-9.5 -22.5v-512q0 -13 9.5 -22.5t22.5 -9.5h96q13 0 22.5 -9.5t9.5 -22.5t-9.5 -22.5
t-22.5 -9.5h-96q-40 0 -68 28t-28 68v512q0 40 28 68t68 28h640q40 0 68 -28t28 -68v-512q0 -40 -28 -68t-68 -28h-211l-86 -87q-10 -9 -23 -9zM336 384q-20 0 -34 14t-14 34t14 34t34 14t34 -14t14 -34t-14 -34t-34 -14zM528 384q-20 0 -34 14t-14 34t14 34t34 14t34 -14
t14 -34t-14 -34t-34 -14zM720 384q-20 0 -34 14t-14 34t14 34t34 14t34 -14t14 -34t-14 -34t-34 -14z" />
    <glyph glyph-name="uniE623" unicode="&#xe623;" 
d="M736 768q-102 0 -176 -70q-6 -5 -48 -48l-47 47q-74 71 -177 71q-106 0 -181 -75t-75 -181q0 -100 76 -182l317 -321q42 -41 87 -41t87 42l316 320l3 2q25 31 37.5 49.5t24.5 54t12 76.5q0 106 -75 181t-181 75z" />
    <glyph glyph-name="uniE624" unicode="&#xe624;" 
d="M512 -32q-45 0 -87 41l-319 323q-25 31 -37.5 49.5t-24.5 54t-12 76.5q0 106 75 181t181 75q81 0 147 -47q11 -7 13.5 -20t-5.5 -24t-21 -13.5t-24 5.5q-49 35 -110 35q-79 0 -135.5 -56.5t-56.5 -135.5q0 -43 13 -70t46 -69l316 -319q22 -22 41 -22q18 0 41 23l317 320
q58 62 58 137q0 79 -56.5 135.5t-135.5 56.5q-75 0 -130 -50l-134 -134q-9 -10 -22 -10t-22.5 9.5t-9.5 22.5t9 23l135 135q75 68 174 68q106 0 181 -75t75 -181q0 -100 -76 -182l-317 -320q-42 -42 -87 -42z" />
    <glyph glyph-name="uniE625" unicode="&#xe625;" 
d="M526 -28q-31 0 -69 37l-182 183h-83q-40 0 -68 28t-28 68v192q0 40 28 68t68 28h83l182 183q37 37 69 37q20 0 35 -15t15 -45v-704q0 -31 -15 -45.5t-35 -14.5zM688 166q-11 0 -19 6q-11 7 -13 20.5t6 23.5l12 18q22 29 32 45t20 45t10 60q0 33 -9 60.5t-18.5 42.5
t-29.5 42q-10 13 -17 23q-8 10 -6 23.5t13 21t24 5.5t21 -13q4 -7 16 -21q23 -31 34.5 -49.5t23.5 -55.5t12 -79q0 -41 -13 -79t-25 -57.5t-36 -51.5l-12 -17q-10 -13 -26 -13zM796 57q-12 0 -21 8q-10 9 -10.5 22t7.5 23q58 66 91 130t33 144t-33 144t-91 130
q-8 10 -7.5 23t10.5 22t23.5 8t22.5 -11q63 -73 101 -147.5t38 -168.5t-38 -168.5t-101 -147.5q-10 -11 -25 -11z" />
    <glyph glyph-name="uniE626" unicode="&#xe626;" 
d="M526 -28q-31 0 -69 37l-182 183h-83q-40 0 -68 28t-28 68v192q0 40 28 68t68 28h83l182 183q37 37 69 37q20 0 35 -15t15 -45v-704q0 -31 -15 -45.5t-35 -14.5zM192 512q-13 0 -22.5 -9.5t-9.5 -22.5v-192q0 -13 9.5 -22.5t22.5 -9.5h96q13 0 23 -9l192 -192l9 -9v676
q-5 -4 -9 -9l-192 -192q-10 -9 -23 -9h-96zM688 166q-11 0 -19 6q-11 7 -13 20.5t6 23.5l12 18q22 29 32 45t20 45t10 60q0 33 -9 60.5t-18.5 42.5t-29.5 42q-10 13 -17 23q-8 10 -6 23.5t13 21t24 5.5t21 -13q4 -7 16 -21q23 -31 34.5 -49.5t23.5 -55.5t12 -79
q0 -41 -13 -79t-25 -57.5t-36 -51.5l-12 -17q-10 -13 -26 -13zM796 57q-12 0 -21 8q-10 9 -10.5 22t7.5 23q58 66 91 130t33 144t-33 144t-91 130q-8 10 -7.5 23t10.5 22t23.5 8t22.5 -11q63 -73 101 -147.5t38 -168.5t-38 -168.5t-101 -147.5q-10 -11 -25 -11z" />
    <glyph glyph-name="uniE627" unicode="&#xe627;" 
d="M352 320h-128q-13 0 -22.5 9.5t-9.5 22.5t9.5 22.5t22.5 9.5h96v96q0 13 9.5 22.5t22.5 9.5t22.5 -9.5t9.5 -22.5v-128q0 -13 -9.5 -22.5t-22.5 -9.5zM702 229q-46 0 -81.5 -28.5t-45.5 -72.5h-124q-10 44 -45.5 72.5t-81.5 28.5q-55 0 -93 -38.5t-38 -92.5t38 -92.5
t93 -38.5q44 0 79 27.5t47 69.5h126q12 -42 46.5 -69.5t79.5 -27.5q54 0 92.5 38.5t38.5 92.5t-38.5 92.5t-92.5 38.5zM323.5 31q-27.5 0 -47 19.5t-19.5 47.5t19.5 47.5t47 19.5t47.5 -19.5t20 -47.5t-20 -47.5t-47.5 -19.5zM702 31q-28 0 -47.5 19.5t-19.5 47.5t19.5 47.5
t47.5 19.5t47.5 -19.5t19.5 -47.5t-19.5 -47.5t-47.5 -19.5zM864 800h-464q-33 0 -56.5 -23.5t-23.5 -56.5v-92l-195 -98l-4 -2q-56 -40 -56 -112v-322q0 -13 9.5 -22.5t23 -9.5t22.5 9.5t9 22.5v322q0 38 27 58l210 105l2 2l2 1q4 3 5 4t4 5l3 6q0 2 1 6q0 1 0.5 2.5
t0.5 2.5v112q0 7 4.5 11.5t11.5 4.5h464q13 0 22.5 -9.5t9.5 -23.5v-607q0 -13 9.5 -22.5t22.5 -9.5t22.5 9.5t9.5 22.5v607q0 40 -28 68.5t-68 28.5z" />
    <glyph glyph-name="uniE628" unicode="&#xe628;" 
d="M672 -16q-20 0 -34 14l-352 352q-14 14 -14 34t14 34l352 352q14 14 34 14t34 -14t14 -34t-14 -34l-318 -318l318 -318q14 -14 14 -34t-14 -34t-34 -14z" />
    <glyph glyph-name="uniE629" unicode="&#xe629;" 
d="M512 -197q-96 0 -178 47.5t-130 129.5t-48 178.5t48 178.5t130 129.5t178 47.5t178 -47.5t130 -129.5t48 -178.5t-48 -178.5t-130 -129.5t-178 -47.5zM512 437q-115 0 -197 -81.5t-82 -197t82 -197t197 -81.5t197 81.5t82 197t-82 197t-197 81.5zM704 556h-64v90
q0 30 -41 52t-87 22t-87 -22t-41 -52v-90h-64v90q0 63 57.5 107t134.5 44t134.5 -44t57.5 -107v-90zM448 236h64v-192h-64v192z" />
    <glyph glyph-name="uniE62A" unicode="&#xe62a;" 
d="M224 288q-40 0 -68 28t-28 68t28 68t68 28t68 -28t28 -68t-28 -68t-68 -28zM512 288q-40 0 -68 28t-28 68t28 68t68 28t68 -28t28 -68t-28 -68t-68 -28zM800 288q-40 0 -68 28t-28 68t28 68t68 28t68 -28t28 -68t-28 -68t-68 -28z" />
    <glyph glyph-name="uniE62B" unicode="&#xe62b;" 
d="M512 832q-185 0 -316.5 -131.5t-131.5 -316.5t131.5 -316.5t316.5 -131.5t316.5 131.5t131.5 316.5t-131.5 316.5t-316.5 131.5zM765 96q0 22 -21 30q-2 1 -15 6.5t-24 9.5t-27 9.5t-34 10t-36 7.5v14q46 45 74 122.5t28 146.5q0 96 -47.5 148t-134.5 52
q-89 0 -140.5 -53t-51.5 -147q0 -50 19 -130t61 -131v-17q-92 -23 -142 -40q-11 -4 -16 -14.5t-2 -21.5q-61 53 -95 127.5t-34 158.5q0 104 51.5 192.5t140 140t193 51.5t193 -51.5t140 -140t51.5 -192.5q0 -85 -35 -160t-96 -128z" />
    <glyph glyph-name="uniE62C" unicode="&#xe62c;" 
d="M512 832q-185 0 -316.5 -131.5t-131.5 -316.5t131.5 -316.5t316.5 -131.5t316.5 131.5t131.5 316.5t-131.5 316.5t-316.5 131.5zM289 72q7 0 10 1q103 37 158 41q12 1 20.5 10t8.5 22v59q0 15 -11 24q-37 32 -54.5 94.5t-17.5 128.5q0 136 125 136q118 0 118 -136
q0 -66 -26 -132.5t-64 -96.5q-12 -10 -12 -25v-55q0 -13 8.5 -22t20.5 -10q50 -6 148 -45h3l2 -1q-97 -65 -214 -65q-122 0 -223 72zM765 95q0 23 -20 31q-80 31 -137 43v14q48 45 75 121.5t27 147.5q0 96 -47.5 148t-134.5 52q-89 0 -139 -53t-50 -147q0 -23 2.5 -49.5
t10 -66.5t25.5 -79t45 -66v-17q-61 -11 -145 -41q-11 -3 -16.5 -13.5t-3.5 -21.5q-60 53 -94.5 127.5t-34.5 158.5q0 159 112.5 271.5t271.5 112.5t271.5 -112.5t112.5 -271.5q0 -85 -35 -160t-96 -129z" />
    <glyph glyph-name="uniE62D" unicode="&#xe62d;" 
d="M928 352h-832q-13 0 -22.5 9.5t-9.5 22.5t9.5 22.5t22.5 9.5h832q13 0 22.5 -9.5t9.5 -22.5t-9.5 -22.5t-22.5 -9.5zM832 -32h-192q-13 0 -22.5 9.5t-9.5 22.5t9.5 22.5t22.5 9.5h192q13 0 22.5 9.5t9.5 22.5v160q0 13 9.5 22.5t22.5 9.5t22.5 -9.5t9.5 -22.5v-160
q0 -40 -28 -68t-68 -28zM352 -32h-160q-40 0 -68 28t-28 68v160q0 13 9.5 22.5t22.5 9.5t22.5 -9.5t9.5 -22.5v-160q0 -13 9.5 -22.5t22.5 -9.5h160q13 0 22.5 -9.5t9.5 -22.5t-9.5 -22.5t-22.5 -9.5zM128 512q-13 0 -22.5 9.5t-9.5 22.5v160q0 40 28 68t68 28h160
q13 0 22.5 -9.5t9.5 -22.5t-9.5 -22.5t-22.5 -9.5h-160q-13 0 -22.5 -9.5t-9.5 -22.5v-160q0 -13 -9.5 -22.5t-22.5 -9.5zM896 512q-13 0 -22.5 9.5t-9.5 22.5v160q0 13 -9.5 22.5t-22.5 9.5h-192q-13 0 -22.5 9.5t-9.5 22.5t9.5 22.5t22.5 9.5h192q40 0 68 -28t28 -68v-160
q0 -13 -9.5 -22.5t-22.5 -9.5z" />
    <glyph glyph-name="uniE62E" unicode="&#xe62e;" 
d="M512 288q-40 0 -68 28t-28 68t28 68t68 28t68 -28t28 -68t-28 -68t-68 -28zM512 416q-13 0 -22.5 -9.5t-9.5 -22.5t9.5 -22.5t22.5 -9.5t22.5 9.5t9.5 22.5t-9.5 22.5t-22.5 9.5zM631 -64q-16 0 -26 13l-73 101q-20 -2 -40 0l-73 -101q-13 -18 -35 -12q-52 15 -98 41
q-19 10 -16 32l20 124q-15 13 -28 28l-124 -20q-22 -3 -32 16q-26 46 -41 98q-6 22 12 35l101 73q-1 10 -1 20t1 20l-101 73q-18 13 -12 35q15 52 41 98q10 19 32 16l124 -20q13 15 28 28l-20 124q-3 22 16 32q46 26 98 41q22 6 35 -12l73 -101q20 2 40 0l73 101
q13 18 35 12q52 -15 98 -41q19 -10 16 -32l-20 -124q15 -13 28 -28l124 20q22 3 32 -16q26 -46 41 -98q6 -22 -12 -35l-101 -73q1 -10 1 -20t-1 -20l101 -73q18 -13 12 -35q-15 -52 -41 -98q-10 -19 -32 -16l-124 20q-13 -15 -28 -28l20 -124q3 -22 -16 -32q-46 -26 -98 -41
q-5 -1 -9 -1zM337 23q21 -10 44 -18l70 97q11 15 30 13q31 -4 62 0q19 2 30 -13l70 -97q23 8 44 18l-19 119q-2 18 12 30q25 19 44 44q12 14 30 12l119 -19q10 21 18 44l-97 70q-15 11 -13 30q2 17 2 31t-2 31q-2 19 13 30l97 70q-8 23 -18 44l-119 -19q-18 -2 -30 12
q-19 25 -44 44q-14 12 -12 30l19 119q-21 10 -44 18l-70 -97q-11 -15 -30 -13q-31 4 -62 0q-19 -2 -30 13l-70 97q-23 -8 -44 -18l19 -119q2 -18 -12 -30q-25 -19 -44 -44q-12 -14 -30 -12l-119 19q-10 -21 -18 -44l97 -70q15 -11 13 -30q-2 -17 -2 -31t2 -31q2 -19 -13 -30
l-97 -70q8 -23 18 -44l119 19q18 2 30 -12q19 -25 44 -44q14 -12 12 -30z" />
    <glyph glyph-name="uniE62F" unicode="&#xe62f;" 
d="M512 832q-185 0 -316.5 -131.5t-131.5 -316.5t131.5 -316.5t316.5 -131.5t316.5 131.5t131.5 316.5t-131.5 316.5t-316.5 131.5zM512 64q-20 0 -34 14t-14 34t14 34t34 14t34 -14t14 -34t-14 -34t-34 -14zM601 391q-19 -19 -28.5 -29t-19 -26t-9.5 -28v-54
q0 -13 -9.5 -22.5t-22.5 -9.5t-22.5 9.5t-9.5 22.5v54q0 25 13 50t25.5 39.5t36.5 38.5q18 17 26.5 26.5t17.5 23.5t9 24q0 40 -28 68.5t-68 28.5t-68 -27.5t-28 -67.5q0 -13 -9.5 -22.5t-22.5 -9.5t-22.5 9.5t-9.5 22.5q0 66 47 112.5t113 46.5t113 -47t47 -114
q0 -22 -12 -45.5t-24 -37t-35 -36.5z" />
    <glyph glyph-name="uniE630" unicode="&#xe630;" 
d="M512 112zM464 112q0 20 14 34t34 14t34 -14t14 -34t-14 -34t-34 -14t-34 14t-14 34zM512 -64q-185 0 -316.5 131.5t-131.5 316.5t131.5 316.5t316.5 131.5t316.5 -131.5t131.5 -316.5t-131.5 -316.5t-316.5 -131.5zM512 768q-104 0 -192.5 -51.5t-140 -140t-51.5 -192.5
t51.5 -192.5t140 -140t192.5 -51.5t192.5 51.5t140 140t51.5 192.5t-51.5 192.5t-140 140t-192.5 51.5zM512 222q-13 0 -22.5 9.5t-9.5 22.5v54q0 25 13 50t25.5 39.5t36.5 38.5q18 18 26.5 27t17.5 23t9 24q0 40 -28 68.5t-68 28.5t-68 -27.5t-28 -67.5q0 -13 -9.5 -22.5
t-22.5 -9.5t-22.5 9.5t-9.5 22.5q0 66 47 112.5t113 46.5t113 -47t47 -114q0 -22 -12 -45.5t-24 -37t-35 -36.5q-19 -19 -28.5 -29t-19 -26t-9.5 -28v-54q0 -13 -9.5 -22.5t-22.5 -9.5z" />
    <glyph glyph-name="uniE631" unicode="&#xe631;" 
d="M953 543v2q-1 3 -2 5l-75 187q-10 29 -35 45.5t-59 16.5h-527q-33 0 -57 -16t-34 -45l-80 -190q-1 -2 -1 -5q-9 -27 -9 -54q0 -49 25 -91t68 -65q36 -19 83 -19q82 0 134 63q53 -62 134 -63q81 1 133 63q52 -62 135 -62q48 0 84 20q42 23 66.5 64.5t24.5 89.5q0 28 -8 54
zM766 512h-512q-13 0 -22.5 9.5t-9.5 22.5t9.5 22.5t22.5 9.5h512q14 0 23 -9.5t9 -22.5t-9 -22.5t-23 -9.5zM895 256q0 13 -9.5 22.5t-22.5 9.5q-3 0 -9 -2q-39 -15 -77 -13q-79 4 -126 44q-57 -48 -133 -49q-82 0 -134 44q-54 -47 -134 -47q-32 0 -76 16l-2 1q-1 0 -2 0.5
t-2 1.5h-7q-13 0 -22.5 -9t-9.5 -23v-171q0 -34 24 -58t58 -24h602q34 0 58 24.5t24 57.5v175z" />
    <glyph glyph-name="uniE632" unicode="&#xe632;" 
d="M800 -32h-576q-40 0 -68 28t-28 68v640q0 40 28 68t68 28h576q40 0 68 -28t28 -68v-640q0 -40 -28 -68t-68 -28zM224 736q-13 0 -22.5 -9.5t-9.5 -22.5v-640q0 -13 9.5 -22.5t22.5 -9.5h576q13 0 22.5 9.5t9.5 22.5v640q0 13 -9.5 22.5t-22.5 9.5h-576zM641 351h-353
q-13 0 -22.5 9.5t-9.5 22.5t9.5 22.5t22.5 9.5h353q13 0 22.5 -9.5t9.5 -22.5t-9.5 -22.5t-22.5 -9.5zM735 160h-447q-14 0 -23 9.5t-9 23t9 22.5t23 9h447q13 0 22.5 -9t9.5 -22.5t-9.5 -23t-22.5 -9.5zM304 591zM256 591q0 20 14 34t34 14t34 -14t14 -34t-14 -34t-34 -14
t-34 14t-14 34zM511 591zM463 591q0 20 14 34t34 14t34 -14t14 -34t-14 -34t-34 -14t-34 14t-14 34zM719 591zM671 591q0 20 14 34t34 14t34 -14t14 -34t-14 -34t-34 -14t-34 14t-14 34z" />
    <glyph glyph-name="uniE633" unicode="&#xe633;" 
d="M826 341l-288 289q-9 9 -23 9l-1 1h-2q-7 0 -13 -3q-6 -2 -11 -7l-259 -259q-10 -9 -10 -22.5t9.5 -23t22.5 -9.5t23 10l206 206v-564q0 -13 9.5 -22.5t22.5 -9.5t22.5 9.5t9.5 22.5v565l236 -237q10 -10 23 -10t22.5 9.5t9.5 22.5t-9 23zM864 704h-704q-13 0 -22.5 9.5
t-9.5 22.5t9.5 22.5t22.5 9.5h704q13 0 22.5 -9.5t9.5 -22.5t-9.5 -22.5t-22.5 -9.5z" />
    <glyph glyph-name="uniE634" unicode="&#xe634;" 
d="M512 -64q-185 0 -316.5 131.5t-131.5 316.5t131.5 316.5t316.5 131.5t316.5 -131.5t131.5 -316.5t-131.5 -316.5t-316.5 -131.5zM512 768q-159 0 -271.5 -112.5t-112.5 -271.5t112.5 -271.5t271.5 -112.5t271.5 112.5t112.5 271.5t-112.5 271.5t-271.5 112.5z
M694.5 373.5q-9.5 9.5 -23 9.5t-22.5 -9l-105 -104v307q0 13 -9.5 22.5t-22.5 9.5t-22.5 -9.5t-9.5 -22.5v-309l-105 107q-10 9 -23 9.5t-22.5 -9t-9.5 -23t9 -22.5l160 -161q9 -10 23 -10q13 0 22 9v1l160 159q10 10 10 23t-9.5 22.5z" />
    <glyph glyph-name="uniE635" unicode="&#xe635;" 
d="M512 -64q-185 0 -316.5 131.5t-131.5 316.5t131.5 316.5t316.5 131.5t316.5 -131.5t131.5 -316.5t-131.5 -316.5t-316.5 -131.5zM512 768q-159 0 -271.5 -112.5t-112.5 -271.5t112.5 -271.5t271.5 -112.5t271.5 112.5t112.5 271.5t-112.5 271.5t-271.5 112.5zM694 438
l-158 160q-15 15 -35 7l-1 -1h-1q-6 -3 -8 -6v0l-160 -159q-9 -9 -9 -22.5t9 -23t22.5 -9.5t22.5 10l104 103v-305q0 -13 9.5 -22.5t22.5 -9.5t22.5 9.5t9.5 22.5v307l105 -106q9 -10 23 -10q13 0 22.5 9.5t9.5 22.5t-10 23z" />
    <glyph glyph-name="uniE636" unicode="&#xe636;" 
d="M761 364l1 1t1 2q7 13 4.5 28.5t-14.5 26.5l-353 334q-15 14 -34.5 13.5t-33.5 -15t-13 -34.5t15 -34l317 -299l-316 -305q-14 -13 -14.5 -33t13.5 -35q14 -14 35 -14q19 0 33 13l350 338v1q1 1 1.5 1t0.5 1h1q1 2 6 10z" />
    <glyph glyph-name="uniE637" unicode="&#xe637;" 
d="M939.5 639.5q-12.5 4.5 -24.5 -1t-16 -18.5l-25 -69q-45 100 -133 166q-91 68 -202.5 80.5t-214.5 -30.5t-172 -134q-50 -66 -70.5 -145.5t-9.5 -162.5q12 -82 54.5 -153t110.5 -121q112 -83 251 -83q98 0 187.5 43t149.5 123q55 73 74 161q3 13 -4 24t-20 14t-24 -4.5
t-14 -20.5q-16 -74 -63 -135q-58 -77 -145.5 -113.5t-182 -25.5t-171.5 68q-57 43 -93 102.5t-46 129.5q-21 144 67 261q58 76 145.5 113t182 26t172.5 -68q87 -65 123 -167l-110 43q-13 5 -25 -0.5t-17 -18t0.5 -24.5t17.5 -17l162 -63q6 -2 12 -2h1t2 -0.5t2 -0.5
q23 0 30 22l58 161q4 12 -1.5 24t-18 16.5z" />
    <glyph glyph-name="uniE638" unicode="&#xe638;" 
d="M418 672q0 40 28 68t67.5 28t68 -28t28.5 -68t-28.5 -68t-68 -28t-67.5 28t-28 68zM418 384q0 40 28 68t67.5 28t68 -28t28.5 -68t-28.5 -68t-68 -28t-67.5 28t-28 68zM418 96q0 40 28 68t67.5 28t68 -28t28.5 -68t-28.5 -68t-68 -28t-67.5 28t-28 68z" />
    <glyph glyph-name="uniE639" unicode="&#xe639;" 
d="M928 672h-160v64q0 40 -28 68t-67 28h-321q-40 0 -68 -28t-28 -68v-64h-160q-13 0 -22.5 -9.5t-9.5 -22.5t9.5 -22.5t22.5 -9.5h832q13 0 22.5 9.5t9.5 22.5t-9.5 22.5t-22.5 9.5zM800 544h-576q-13 0 -23 -9q-9 -9 -9 -23v-480q0 -40 28 -68t68 -28h448q40 0 68 28
t28 68v480q0 13 -9.5 22.5t-22.5 9.5zM448 96q0 -13 -9.5 -22.5t-22.5 -9.5t-22.5 9.5t-9.5 22.5v352q0 13 9.5 22.5t22.5 9.5t22.5 -9.5t9.5 -22.5v-352zM640 96q0 -13 -9.5 -22.5t-22.5 -9.5t-22.5 9.5t-9.5 22.5v352q0 13 9.5 22.5t22.5 9.5t22.5 -9.5t9.5 -22.5v-352z
" />
    <glyph glyph-name="uniE63A" unicode="&#xe63a;" 
d="M986 306q-8 11 -21 13t-24 -6l-57 -41q15 55 15 111q0 113 -55.5 209t-152 152t-209.5 56t-209 -56t-152 -152t-56 -209t56 -209t152 -152t209 -56q111 0 207 55q6 1 10 4q27 16 51 36q10 8 11.5 21t-7 23.5t-21.5 11.5t-24 -7q-17 -14 -40 -28l-6 -2q-83 -50 -181 -50
q-95 0 -176.5 47.5t-129 128.5t-47.5 177t47.5 177t129 128.5t177 47.5t177 -47.5t128.5 -128.5t47 -177q0 -66 -24 -128l-45 109q-5 12 -17.5 17t-24.5 0t-17 -17.5t0 -24.5l72 -173q0 -1 3 -5v-1h1v-1q4 -5 10 -8l2 -1q6 -3 11 -3q0 -1 0.5 -0.5t1 0.5t0.5 -0.5t1 -0.5h1
q0 1 1 1q3 0 7 1h1q4 2 7 4h1l152 109q10 8 12.5 21t-5.5 24zM607 522q9 9 9.5 22t-9 22.5t-22.5 10t-23 -9.5l-80 -77l-79 77q-10 10 -23 9.5t-22.5 -10t-9 -22.5t9.5 -22l90 -87v-19h-64q-13 0 -22.5 -9.5t-9.5 -22.5t9.5 -22.5t22.5 -9.5h64v-32h-64q-13 0 -22.5 -9.5
t-9.5 -22.5t9.5 -22.5t22.5 -9.5h64v-67q0 -14 9.5 -23t22.5 -9t22.5 9t9.5 23v67h64q13 0 22.5 9.5t9.5 22.5t-9.5 22.5t-22.5 9.5h-64v32h64q13 0 22.5 9.5t9.5 22.5t-9.5 22.5t-22.5 9.5h-64v14z" />
    <glyph glyph-name="uniE63B" unicode="&#xe63b;" 
d="M353 64q-27 0 -45.5 -18.5t-18.5 -45.5t18.5 -45.5t45 -18.5t45.5 18.5t19 45.5t-19 45.5t-45 18.5zM801 64q-27 0 -45.5 -18.5t-18.5 -45.5t18.5 -45.5t45 -18.5t45.5 18.5t19 45.5t-19 45.5t-45 18.5zM864 96h-520q-34 0 -61 24t-31 59l-54 382l-31 179q-2 11 -11 19.5
t-19 8.5h-41q-13 0 -22.5 9.5t-9.5 22.5t9.5 22.5t22.5 9.5h41q35 0 62 -24t31 -59l31 -178l54 -384q2 -11 10.5 -19t18.5 -8h520q13 0 22.5 -9.5t9.5 -22.5t-9.5 -22.5t-22.5 -9.5zM384 224q-12 0 -21.5 8.5t-10.5 21.5t8 23t22 11l434 32q12 0 21 8t10 19l51 288
q2 18 -9 30q-6 7 -15 7h-554q-13 0 -22.5 9.5t-9.5 22.5t9.5 22.5t22.5 9.5h554q38 0 63 -29q30 -33 24 -81l-51 -289q-4 -33 -30.5 -57t-61.5 -24l-431 -32h-3z" />
    <glyph glyph-name="uniE63C" unicode="&#xe63c;" 
d="M384 -32h-192q-40 0 -68 28t-28 68v192q0 40 28 68t68 28h192q40 0 68 -28t28 -68v-192q0 -40 -28 -68t-68 -28zM192 288q-13 0 -22.5 -9.5t-9.5 -22.5v-192q0 -13 9.5 -22.5t22.5 -9.5h192q13 0 22.5 9.5t9.5 22.5v192q0 13 -9.5 22.5t-22.5 9.5h-192zM736 0
q-13 0 -22.5 9.5t-9.5 22.5v64q0 13 9.5 22.5t22.5 9.5t22.5 -9.5t9.5 -22.5v-64q0 -13 -9.5 -22.5t-22.5 -9.5zM864 0q-13 0 -22.5 9.5t-9.5 22.5v96q0 13 9.5 22.5t22.5 9.5t22.5 -9.5t9.5 -22.5v-96q0 -13 -9.5 -22.5t-22.5 -9.5zM864 224q-13 0 -22.5 9.5t-9.5 22.5v64
q0 13 9.5 22.5t22.5 9.5t22.5 -9.5t9.5 -22.5v-64q0 -13 -9.5 -22.5t-22.5 -9.5zM736 160q-13 0 -22.5 9.5t-9.5 22.5v128q0 13 9.5 22.5t22.5 9.5t22.5 -9.5t9.5 -22.5v-128q0 -13 -9.5 -22.5t-22.5 -9.5zM608 0q-13 0 -22.5 9.5t-9.5 22.5v128q0 13 9.5 22.5t22.5 9.5
t22.5 -9.5t9.5 -22.5v-128q0 -13 -9.5 -22.5t-22.5 -9.5zM608 256q-13 0 -22.5 9.5t-9.5 22.5v32q0 13 9.5 22.5t22.5 9.5t22.5 -9.5t9.5 -22.5v-32q0 -13 -9.5 -22.5t-22.5 -9.5zM320 96h-64q-13 0 -22.5 9.5t-9.5 22.5v64q0 13 9.5 22.5t22.5 9.5h64q13 0 22.5 -9.5
t9.5 -22.5v-64q0 -13 -9.5 -22.5t-22.5 -9.5zM384 416h-192q-40 0 -68 28t-28 68v192q0 40 28 68t68 28h192q40 0 68 -28t28 -68v-192q0 -40 -28 -68t-68 -28zM192 736q-13 0 -22.5 -9.5t-9.5 -22.5v-192q0 -13 9.5 -22.5t22.5 -9.5h192q13 0 22.5 9.5t9.5 22.5v192
q0 13 -9.5 22.5t-22.5 9.5h-192zM320 544h-64q-13 0 -22.5 9.5t-9.5 22.5v64q0 13 9.5 22.5t22.5 9.5h64q13 0 22.5 -9.5t9.5 -22.5v-64q0 -13 -9.5 -22.5t-22.5 -9.5zM832 416h-192q-40 0 -68 28t-28 68v192q0 40 28 68t68 28h192q40 0 68 -28t28 -68v-192q0 -40 -28 -68
t-68 -28zM640 736q-13 0 -22.5 -9.5t-9.5 -22.5v-192q0 -13 9.5 -22.5t22.5 -9.5h192q13 0 22.5 9.5t9.5 22.5v192q0 13 -9.5 22.5t-22.5 9.5h-192zM768 544h-64q-13 0 -22.5 9.5t-9.5 22.5v64q0 13 9.5 22.5t22.5 9.5h64q13 0 22.5 -9.5t9.5 -22.5v-64q0 -13 -9.5 -22.5
t-22.5 -9.5z" />
    <glyph glyph-name="uniE63D" unicode="&#xe63d;" 
d="M896 669q-13 0 -23 9l-96 96q-9 10 -9 23t9.5 22.5t22.5 9.5t23 -9l96 -96q9 -10 9 -23t-9.5 -22.5t-22.5 -9.5zM129.5 671q-13.5 0 -23 9.5t-9.5 22.5t10 23l96 96q9 9 22 9t22.5 -9.5t9.5 -22.5t-9 -23l-96 -96q-9 -9 -22.5 -9zM727 550q9 10 9 23t-9.5 22.5t-22.5 9.5
t-23 -9l-128 -128v-1q-20 10 -41 10t-41 -10v1l-96 96q-10 9 -23 9t-22.5 -9.5t-9.5 -22.5t9 -23l96 -96h1q-10 -20 -10 -41q0 -40 28 -68t68 -28t68 28t28 68q0 21 -10 41h1zM512 349q-13 0 -22.5 9.5t-9.5 22.5t9.5 22.5t22.5 9.5t22.5 -9.5t9.5 -22.5t-9.5 -22.5
t-22.5 -9.5zM507 381zM810 91q56 57 87 132t31 158q0 113 -55.5 208.5t-151.5 151.5t-209 56t-209 -56t-151.5 -151.5t-55.5 -208.5q0 -84 31.5 -159t88.5 -132l-49 -74q-8 -11 -5 -24t14 -21q8 -5 17 -5q18 0 27 14l44 67q111 -82 248 -82q138 0 249 84l46 -67
q9 -14 26 -14q10 0 18 6q11 7 13.5 20t-4.5 24zM160 380.5q0 95.5 47 177t128.5 128.5t176.5 47t176.5 -47t128.5 -128.5t47 -177t-47 -176.5t-128.5 -128t-176.5 -47t-176.5 47t-128.5 128t-47 176.5z" />
    <glyph glyph-name="uniE63E" unicode="&#xe63e;" 
d="M608 128q-13 0 -22.5 9.5t-9.5 22.5v352q0 13 9.5 22.5t22.5 9.5t22.5 -9.5t9.5 -22.5v-352q0 -13 -9.5 -22.5t-22.5 -9.5zM416 128q-13 0 -22.5 9.5t-9.5 22.5v352q0 13 9.5 22.5t22.5 9.5t22.5 -9.5t9.5 -22.5v-352q0 -13 -9.5 -22.5t-22.5 -9.5zM928 672h-160v64
q0 40 -28 68t-67 28h-321q-40 0 -68 -28t-28 -68v-64h-160q-13 0 -22.5 -9.5t-9.5 -22.5t9.5 -22.5t22.5 -9.5h832q13 0 22.5 9.5t9.5 22.5t-9.5 22.5t-22.5 9.5zM320 736q0 13 9.5 22.5t22.5 9.5h321q13 0 22 -9.5t9 -22.5v-64h-384v64zM736 -64h-448q-40 0 -68 28t-28 68
v480q0 14 9.5 23t22.5 9t22.5 -9t9.5 -23v-480q0 -13 9.5 -22.5t22.5 -9.5h448q13 0 22.5 9.5t9.5 22.5v479q0 13 9.5 22.5t22.5 9.5t22.5 -9.5t9.5 -22.5v-479q0 -40 -28 -68t-68 -28z" />
    <glyph glyph-name="uniE63F" unicode="&#xe63f;" 
d="M383 -64h-3q-121 11 -201.5 62t-80.5 116q0 41 38 74.5t93.5 54t123.5 30.5v13q-34 25 -56 60t-33 78t-14.5 83t-3.5 92q0 109 61 171t169 62q106 0 163 -60t57 -173q0 -52 -16.5 -114t-45.5 -116q-6 -12 -19 -15.5t-24.5 2.5t-15.5 18.5t2 24.5q25 47 40 101.5t15 98.5
q0 169 -156 169q-166 0 -166 -169q0 -47 3 -82.5t12 -73t28.5 -66.5t48.5 -48q15 -9 15 -27v-57q0 -12 -8.5 -21.5t-20.5 -10.5q-96 -10 -161 -41.5t-65 -57.5q0 -33 63.5 -69.5t159.5 -44.5q14 -1 22.5 -11.5t7.5 -23.5q-2 -12 -11 -20.5t-21 -8.5zM769 128h-128
q-14 0 -23 9.5t-9 22.5t9 22.5t23 9.5h128q13 0 22.5 -9.5t9.5 -22.5t-9.5 -22.5t-22.5 -9.5zM705 29h-64q-14 0 -23 9t-9 22.5t9 23t23 9.5h64q13 0 22.5 -9.5t9.5 -23t-9.5 -22.5t-22.5 -9zM833 -67h-256q-40 0 -68 28t-28 68v163q0 40 28 68t68 28h256q39 0 67.5 -28
t28.5 -68v-163q0 -40 -28.5 -68t-67.5 -28zM577 224q-13 0 -22.5 -9.5t-9.5 -22.5v-163q0 -14 9.5 -23t22.5 -9h256q13 0 22.5 9t9.5 23v163q0 13 -9.5 22.5t-22.5 9.5h-256z" />
    <glyph glyph-name="uniE640" unicode="&#xe640;" 
d="M980 491l-406 321q-26 21 -62 21t-62 -21l-406 -321q-10 -8 -11.5 -21t6.5 -23.5t21 -12t23 6.5l13 11v-388q0 -40 34.5 -68t74.5 -28h640q37 0 60 26.5t23 69.5v386l12 -9q8 -7 20 -7q15 0 25 12q8 11 6.5 24t-11.5 21zM480 32v177q0 14 32 14t32 -14v-177h-64zM864 64
q0 -32 -19 -32h-236h-1v1v176q0 31 -25 54.5t-71 23.5t-71 -23.5t-25 -54.5v-176v-1h1h-212q-15 0 -30 10.5t-15 21.5v438l329 260q9 7 22.5 7t22.5 -7l330 -261v-437z" />
    <glyph glyph-name="uniE641" unicode="&#xe641;" 
d="M982 492l-409 320q-26 21 -62 21t-62 -21l-406 -321q-10 -8 -11.5 -21t6.5 -23.5t21 -12t24 6.5l13 11v-388q0 -40 34 -68t74 -28h640q38 0 61 26.5t23 69.5v389l14 -12q9 -7 20 -7q16 0 25 13q9 10 7 23t-12 22zM608 99v-67h-64h-64h-64v67v112q0 31 25 54t71 23t71 -23
t25 -54v-112z" />
    <glyph glyph-name="uniE642" unicode="&#xe642;" 
d="M640 480h-256q-13 0 -22.5 9.5t-9.5 22.5t9.5 22.5t22.5 9.5h256q13 0 22.5 -9.5t9.5 -22.5t-9.5 -22.5t-22.5 -9.5zM579 352h-195q-13 0 -22.5 9.5t-9.5 22.5t9.5 22.5t22.5 9.5h195q14 0 23 -9.5t9 -22.5t-9 -22.5t-23 -9.5zM962 448q0 104 -60 192.5t-163 140
t-224.5 51.5t-225 -51.5t-163.5 -140t-60 -192.5q0 -87 45.5 -166t127.5 -135q11 -7 24 -4.5t20.5 13.5t5 24t-13.5 20q-69 47 -107 112t-38 136q0 87 51.5 160.5t140 116.5t192.5 43t192.5 -43t140 -116.5t51.5 -160.5t-51.5 -160.5t-140 -116.5t-192.5 -43h-3l-2 -1
q-12 2 -22 -3.5t-14 -16.5q-9 -26 -94 -74q17 58 3 79q-10 16 -30 16q-13 0 -22.5 -9.5t-9.5 -22.5q0 -9 5 -16q-6 -33 -33 -100q-9 -20 7 -35q9 -9 22 -9q7 0 13 3q144 64 188 125q120 2 221 53.5t160 139.5t59 191z" />
    <glyph glyph-name="uniE643" unicode="&#xe643;" 
d="M160 288q-13 0 -22.5 9.5t-9.5 22.5v160q0 13 9.5 22.5t22.5 9.5t22.5 -9.5t9.5 -22.5v-160q0 -13 -9.5 -22.5t-22.5 -9.5zM864 -32h-640q-40 0 -68 28t-28 67v65q0 13 9.5 22.5t22.5 9.5t22.5 -9.5t9.5 -22.5v-65q0 -13 9.5 -22t22.5 -9h640q13 0 22.5 9.5t9.5 22.5v640
q0 13 -9.5 22.5t-22.5 9.5h-640q-13 0 -22.5 -5.5t-9.5 -11.5v-47q0 -13 -9.5 -22.5t-22.5 -9.5t-22.5 9.5t-9.5 22.5v47q0 33 28 57t68 24h640q40 0 68 -28t28 -68v-640q0 -40 -28 -68t-68 -28zM192 544h-96q-13 0 -22.5 9.5t-9.5 22.5t9.5 22.5t22.5 9.5h96
q13 0 22.5 -9.5t9.5 -22.5t-9.5 -22.5t-22.5 -9.5zM192 192h-96q-13 0 -22.5 9.5t-9.5 22.5t9.5 22.5t22.5 9.5h96q13 0 22.5 -9.5t9.5 -22.5t-9.5 -22.5t-22.5 -9.5zM319 95q-11 0 -19.5 7t-11.5 18q-3 13 4 24t20 14q97 23 168 31v20q-50 43 -73 107.5t-23 162.5
q0 192 192 192q46 0 81 -11.5t55.5 -30t33.5 -45t17.5 -51.5t4.5 -54q0 -171 -127 -271v-20q68 -8 166 -30q13 -3 20 -14t4 -24t-14 -20t-24 -4q-127 27 -186 31q-12 1 -21 10t-9 22v65q-1 16 13 26q114 82 114 229q0 69 -30 98.5t-98 29.5q-69 0 -98.5 -29.5t-29.5 -98.5
q0 -89 19.5 -142.5t63.5 -87.5q13 -9 13 -25v-65q0 -12 -9 -21.5t-21 -10.5q-48 -2 -187 -31q-4 -1 -8 -1z" />
    <glyph glyph-name="uniE644" unicode="&#xe644;" 
d="M546 256h-1q-22 0 -45 26l-37 43q-9 10 -8.5 24t10.5 23t23 8.5t22 -10.5l37 -40l174 179l-50 55l-72 -75q-10 -9 -23 -9t-22.5 9t-9.5 22.5t9 22.5l74 75q18 18 45 18t45 -19l50 -53q18 -19 17.5 -45.5t-18.5 -44.5l-176 -185q-24 -24 -44 -24zM352.5 141
q-26.5 0 -45.5 19l-51 49q-19 18 -19 45t19 45l179 187q25 26 45 26t45 -25l42 -45q9 -9 9 -23.5t-9.5 -23.5t-22.5 -9.5t-23 8.5l-41 41l-179 -181l51 -48l75 73q9 9 22 9t22.5 -9.5t9.5 -22.5t-9 -23l-75 -73q-18 -19 -44.5 -19zM512 -64q-185 0 -316.5 131.5
t-131.5 316.5t131.5 316.5t316.5 131.5t316.5 -131.5t131.5 -316.5t-131.5 -316.5t-316.5 -131.5zM512 768q-159 0 -271.5 -112.5t-112.5 -271.5t112.5 -271.5t271.5 -112.5t271.5 112.5t112.5 271.5t-112.5 271.5t-271.5 112.5z" />
    <glyph glyph-name="uniE645" unicode="&#xe645;" 
d="M512 128q-13 0 -22.5 9.5t-9.5 22.5v96q0 13 9.5 22.5t22.5 9.5t22.5 -9.5t9.5 -22.5v-96q0 -13 -9.5 -22.5t-22.5 -9.5zM832 -64h-640q-40 0 -68 28t-28 68v352q0 40 28 68t68 28h640q40 0 68 -28t28 -68v-352q0 -40 -28 -68t-68 -28zM192 416q-13 0 -22.5 -9.5
t-9.5 -22.5v-352q0 -13 9.5 -22.5t22.5 -9.5h640q13 0 22.5 9.5t9.5 22.5v352q0 13 -9.5 22.5t-22.5 9.5h-640zM736 416q-13 0 -22.5 9.5t-9.5 22.5v130q0 78 -61 134t-133 56q-74 0 -132 -52.5t-58 -137.5v-130q0 -13 -9.5 -22.5t-22.5 -9.5t-22.5 9.5t-9.5 22.5v130
q0 76 38 135.5t95 89t121 29.5q62 0 121 -31.5t98 -91t39 -131.5v-130q0 -13 -9.5 -22.5t-22.5 -9.5z" />
    <glyph glyph-name="uniE646" unicode="&#xe646;" 
d="M512 128q-13 0 -22.5 9.5t-9.5 22.5v96q0 13 9.5 22.5t22.5 9.5t22.5 -9.5t9.5 -22.5v-96q0 -13 -9.5 -22.5t-22.5 -9.5zM832 -64h-640q-40 0 -68 28t-28 68v384q0 40 28 68t68 28h640q40 0 68 -28t28 -68v-384q0 -40 -28 -68t-68 -28zM192 448q-13 0 -22.5 -9.5
t-9.5 -22.5v-384q0 -13 9.5 -22.5t22.5 -9.5h640q13 0 22.5 9.5t9.5 22.5v384q0 13 -9.5 22.5t-22.5 9.5h-640zM288 480q-13 0 -22.5 9.5t-9.5 22.5v65q0 76 39.5 136t99.5 89.5t127 29.5q76 0 143 -41t101 -108q6 -11 2 -24t-16 -19t-24.5 -1.5t-18.5 15.5q-26 52 -77.5 83
t-109.5 31q-79 0 -140.5 -53t-61.5 -138v-65q0 -13 -9.5 -22.5t-22.5 -9.5z" />
    <glyph glyph-name="uniE647" unicode="&#xe647;" 
d="M729 399q-1 0 -4.5 1t-4.5 1.5t-4 1.5t-4 2t-3 2t-2.5 2.5t-1.5 3.5t-0.5 4t1.5 5q11 27 11.5 52.5t-10.5 42.5q-39 55 -190 -7v-1q-23 -9 -22 5q0 3 1 5q22 71 -10 103q-36 36 -121 3t-169 -115q-63 -63 -97.5 -126.5t-34.5 -119.5q0 -69 55 -123.5t139 -81.5t177 -27
q87 0 163 23t126 60t78.5 80.5t28.5 84.5q0 46 -29.5 76t-72.5 43zM436 83.5q-110 -10.5 -193 32t-90 114t66 129.5t182.5 68.5t192.5 -32t90 -114t-65.5 -129.5t-182.5 -68.5zM897.5 661q-44.5 46 -106 64t-124.5 6q-14 -3 -22 -14.5t-5 -24.5t15.5 -20.5t26.5 -4.5
q44 8 88 -4.5t75.5 -45.5t41 -76t-4.5 -82q-5 -13 1.5 -25t20.5 -16.5t27 2t17 19.5q20 55 7 115.5t-57.5 106.5zM808 579q-21 23 -51 32t-61 3q-12 -3 -18.5 -13t-4 -21.5t13 -18t22.5 -4.5q32 7 54.5 -17t11.5 -54q-3 -12 2.5 -22.5t17 -14t23 2t14.5 16.5q10 28 3.5 58
t-27.5 53zM485 392q-54 14 -107.5 -9t-76.5 -70q-24 -47 -3.5 -93t74.5 -63q57 -18 114.5 6t80.5 75q22 50 -2 95t-80 59zM430 233.5q-11 -16.5 -31.5 -23t-37.5 1.5q-18 7 -22.5 24t6.5 33.5t31 23t37 -1.5q18 -7 23 -24t-6 -33.5zM478 292.5q-4 -6.5 -11.5 -9t-14.5 0
t-8.5 9t1.5 12.5q10 15 26 9q7 -2 9 -8.5t-2 -13z" />
    <glyph glyph-name="uniE648" unicode="&#xe648;" 
d="M719 256q-68 0 -133 35q-72 29 -126 29q-57 0 -128 -30q-15 -6 -29.5 3.5t-14.5 26.5v416q0 22 20 30q84 34 155 34t150 -35q2 0 3 -2q48 -27 101 -27q23 0 48.5 7.5t35.5 12.5l14 7q16 10 32.5 1t16.5 -28v-416q0 -17 -15 -27q-6 -4 -18.5 -10.5t-46 -16.5t-65.5 -10z
M460 384q69 0 152 -34l4 -2q5 -3 15.5 -8t37 -12.5t50.5 -7.5q40 0 81 19v348q-43 -15 -83 -15q-69 0 -131 35q-68 29 -123 29q-45 0 -111 -22v-349q62 19 108 19zM544 -32h-352v800q0 13 9.5 22.5t22.5 9.5t22.5 -9.5t9.5 -22.5v-736h288q13 0 22.5 -9.5t9.5 -22.5
t-9.5 -22.5t-22.5 -9.5zM224 -32h-63q-13 0 -22.5 9.5t-9.5 22.5t9.5 22.5t22.5 9.5h63q13 0 22.5 -9.5t9.5 -22.5t-9.5 -22.5t-22.5 -9.5z" />
    <glyph glyph-name="uniE649" unicode="&#xe649;" 
d="M641 30q-26 0 -45 18.5t-19 45t19 45.5t45 19h65v63q0 13 -9.5 22.5t-22.5 9.5q-27 0 -66 2v31q20 16 35.5 35.5t25.5 35.5t17 40t10.5 38t5.5 42t2 38.5t1 40.5q0 2 0.5 8t0.5 9v17l-1 8q-10 212 -189 229q-14 1 -26 2h-8h-6q-13 -1 -25 -2q-181 -17 -191 -230v-7
q-1 -10 -1 -17v-11v-9v-8q6 -157 93 -257v-38q-68 -10 -123 -28.5t-93.5 -51t-38.5 -73.5q0 -33 18 -59.5t45 -43.5t64.5 -29.5t71.5 -19t72.5 -10t60 -4.5t40.5 -1h13h14q98 0 185 18q12 3 19 11.5t7 20.5v50h-66zM898 128h-98v94q0 13 -9.5 22.5t-22.5 9.5t-22.5 -9.5
t-9.5 -22.5v-94h-95q-13 0 -22.5 -9.5t-9.5 -22.5t9.5 -22.5t22.5 -9.5h95v-98q0 -14 9.5 -23t22.5 -9t22.5 9t9.5 23v98h98q13 0 22.5 9.5t9.5 22.5t-9.5 22.5t-22.5 9.5z" />
    <glyph glyph-name="uniE64A" unicode="&#xe64a;" 
d="M898 128h-98v94q0 13 -9.5 22.5t-22.5 9.5t-22.5 -9.5t-9.5 -22.5v-94h-95q-13 0 -22.5 -9.5t-9.5 -22.5t9.5 -22.5t22.5 -9.5h95v-98q0 -14 9.5 -23t22.5 -9t22.5 9t9.5 23v98h98q13 0 22.5 9.5t9.5 22.5t-9.5 22.5t-22.5 9.5zM468 -67q-28 0 -58 1.5t-76 6.5t-84.5 17
t-74.5 29t-57 46t-21 66q0 40 38.5 72.5t93.5 51t124 28.5v37q-30 29 -50 64t-29 74.5t-12 71.5t-4 75q0 119 60.5 188t164.5 69q222 0 222 -256q0 -54 -16.5 -102.5t-47.5 -106.5l-32 -66v-77q0 -14 -9 -23t-22.5 -9t-23 9t-9.5 23v85q0 7 4 14l35 73q28 53 42.5 94.5
t14.5 85.5q0 100 -37.5 146t-120.5 46q-42 0 -73 -15t-47 -36t-26 -49.5t-12.5 -49.5t-2.5 -42q1 -90 19 -148t65 -99q11 -10 11 -24v-80q0 -13 -8 -22t-20 -10q-98 -11 -163 -39t-65 -53q0 -27 30 -47.5t78 -32t98.5 -17t100.5 -5.5q48 0 169 14q13 2 23.5 -6t12.5 -21
t-6 -23.5t-21 -12.5q-113 -15 -178 -15z" />
    <glyph glyph-name="uniE64B" unicode="&#xe64b;" 
d="M387 -64h-3q-121 11 -201.5 62t-80.5 116q0 40 38.5 74t95 54.5t124.5 30.5v13q-35 26 -58 63t-33.5 81.5t-14.5 83t-4 85.5q0 109 61 171t169 62q106 0 163 -60t57 -173q0 -52 -16.5 -114t-45.5 -116q-6 -12 -19 -15.5t-24.5 2.5t-15.5 18.5t2 24.5q25 47 40 101.5
t15 98.5q0 169 -156 169q-166 0 -166 -169q0 -45 3.5 -79.5t12.5 -73t29 -68.5t50 -49q15 -9 15 -27v-57q0 -12 -8.5 -21.5t-20.5 -10.5q-98 -10 -163.5 -41.5t-65.5 -57.5q0 -33 63.5 -69.5t160.5 -44.5q13 -1 21.5 -11.5t7.5 -23.5q-1 -12 -10.5 -20.5t-21.5 -8.5z
M852 -63q-8 0 -15 4l-113 62l-114 -62q-17 -10 -33.5 2t-13.5 31l23 135l-93 95q-14 14 -7.5 32.5t25.5 21.5l127 19l57 121q9 19 29 19q21 0 29 -19l57 -121l127 -20q19 -3 25 -21.5t-7 -32.5l-93 -95l21 -128q2 -5 2 -11q0 -13 -9.5 -22.5t-22.5 -9.5h-1zM723.5 72
q8.5 0 15.5 -4l71 -39l-14 85q-2 16 9 28l60 61l-82 13q-16 3 -24 18l-35 76l-35 -76q-8 -15 -25 -18l-82 -12l61 -62q11 -12 8 -28l-14 -85l71 39q7 4 15.5 4z" />
    <glyph glyph-name="uniE64C" unicode="&#xe64c;" 
d="M401 -64q-336 0 -336 162q0 37 34 67.5t84.5 49t111.5 28.5v6q-31 24 -51.5 57t-30 73t-13 74.5t-3.5 76.5q0 99 55 155t153 56h7q97 0 152.5 -56t55.5 -155q0 -42 -3.5 -76.5t-13 -74.5t-30 -73t-51.5 -57v-6q61 -10 111.5 -28.5t84.5 -49t34 -67.5q0 -24 -8.5 -45.5
t-32 -43.5t-61 -37.5t-101.5 -25.5t-148 -10zM405 677q-144 0 -144 -147q0 -39 3 -70t11 -64.5t25.5 -60t43.5 -42.5q15 -10 15 -27v-52q0 -12 -8.5 -21t-20.5 -10q-84 -9 -142.5 -36.5t-58.5 -48.5q0 -98 272 -98q137 0 212 25.5t75 72.5q0 21 -58.5 48.5t-142.5 36.5
q-13 1 -21 10t-8 21v52q0 17 15 27q26 16 43.5 42.5t25.5 60t11 64.5t3 70q0 147 -144 147h-7zM899 132q-13 0 -22.5 9.5t-9.5 22.5t-26 33t-73.5 38.5t-97.5 23.5q-12 2 -20 11t-8 21v67q0 17 14 27q29 18 49 48t28.5 63.5t11.5 58t3 47.5q0 40 -12 67.5t-33.5 41.5
t-43.5 19.5t-48 5.5q-13 0 -22.5 9.5t-9.5 22.5t9.5 22.5t22.5 9.5q93 0 147 -53t54 -145q0 -27 -3.5 -55.5t-13.5 -67.5t-33 -76t-56 -62v-22q53 -10 103.5 -31.5t86 -55t35.5 -68.5q0 -13 -9.5 -22.5t-22.5 -9.5z" />
    <glyph glyph-name="uniE64D" unicode="&#xe64d;" 
d="M743 174q1 1 5.5 4t6.5 5q11 10 10 26l-3 51l50 8q16 2 24 16q44 83 44 177v13l-1 4q-1 16 -14 25l-42 29l26 46q8 13 2 28q-40 94 -123 155q-13 9 -28 5l-49 -15l-19 48q-6 15 -21 19q-99 28 -197 0q-16 -4 -22 -19l-19 -48l-49 15q-15 4 -28 -5q-83 -61 -123 -155
q-6 -15 2 -28l26 -46l-42 -29q-13 -9 -14 -25v-5q-1 -8 -1 -12q0 -94 45 -177q7 -14 23 -16l50 -8l-3 -51q-2 -15 10 -26q2 -2 6 -4.5t6 -4.5l-86 -140q-13 -21 1 -39.5t38 -11.5l79 22l50 -57q11 -13 27 -13q3 0 7 1q20 5 26 25l41 137q7 2 11 7l37 34l37 -34q9 -9 22 -9
q3 0 5 1q58 10 114 41l46 -73l-20 5q-25 8 -43 -12l-27 -32l-5 14q-5 12 -17 18t-24.5 1.5t-18 -16.5t-0.5 -25l21 -59q7 -19 27 -23q3 -1 6 -1q16 0 27 13l50 57l80 -22q24 -7 38 11.5t1 39.5zM377 29l-25 29q-17 20 -43 12l-20 -5l45 73q35 -20 67 -30zM534 206
q-9 9 -22 9t-22 -9l-46 -43q-67 15 -120 58l4 64q1 13 -6.5 22.5t-20.5 11.5l-63 10q-30 62 -30 130l53 37q11 7 13.5 19.5t-3.5 22.5l-33 57q30 61 83 105l62 -19q12 -4 23.5 1.5t15.5 17.5l24 60q66 15 132 0l24 -60q4 -12 15.5 -17.5t23.5 -1.5l62 19q53 -44 83 -105
l-33 -57q-6 -10 -3.5 -22.5t13.5 -19.5l53 -37q0 -68 -30 -130l-63 -10q-13 -2 -20.5 -11.5t-6.5 -22.5l4 -64q-53 -43 -120 -58zM512 242q-92 0 -157 65t-65 157t65 157t157 65t157 -65t65 -157t-65 -157t-157 -65zM512 622q-65 0 -111.5 -46.5t-46.5 -111.5t46.5 -111.5
t111.5 -46.5t111.5 46.5t46.5 111.5t-46.5 111.5t-111.5 46.5z" />
    <glyph glyph-name="uniE64E" unicode="&#xe64e;" 
d="M929 608h-75q12 0 24 19.5t19 42.5q14 46 -17 87q-2 2 -4 5q-28 23 -62 31t-64 3.5t-62.5 -18t-53.5 -26t-41 -26.5q-11 -8 -13.5 -21t5 -24t20.5 -13.5t24 5.5l1 1l2 1q17 12 36.5 23t49.5 24t60.5 12t52.5 -19q9 -13 5 -27q-6 -16 -24 -31.5t-32 -20.5
q-63 -24 -105 -27q-1 0 -2.5 -0.5t-2.5 -0.5h-89q-1 0 -2 2.5t-2 3.5q-109 101 -127 113q-88 61 -164.5 70t-128.5 -35l-5 -5q-30 -41 -16 -87q7 -23 18.5 -42.5t24.5 -19.5h-82q-13 0 -23 -10t-10 -23v-160q0 -8 0.5 -12.5t3.5 -9.5t9.5 -7.5t18.5 -2.5v-313
q0 -42 27.5 -72t65.5 -30h646q38 0 65.5 30.5t27.5 71.5v313q12 0 18.5 2.5t9.5 7.5t3.5 9.5t0.5 12.5v160q0 14 -9 23.5t-22 9.5zM357 609q-41 3 -106 28q-13 4 -31 19.5t-23 32.5q-4 13 4 26q23 18 53.5 19.5t62.5 -10.5t54.5 -24t44.5 -27q3 -2 73 -65h-126q-1 0 -3 0.5
t-3 0.5zM896 544v-96h-764q-4 0 -4 -1v97h768zM835 32h-646q-12 0 -20.5 12t-8.5 26v314h704v-314q0 -14 -9 -26t-20 -12z" />
    <glyph glyph-name="uniE64F" unicode="&#xe64f;" 
d="M832 800h-640q-40 0 -68 -28t-28 -68v-640q0 -40 28 -68t68 -28h640q40 0 68 28t28 68v640q0 40 -28 68t-68 28zM727 458l-256 -259v-1q-2 -1 -7 -4q-1 -1 -2 -1.5t-2 -1.5q-6 -2 -12 -2t-12 2q-1 1 -2 1.5t-1 1.5q-6 3 -7 4v1h-1l-126 129q-9 10 -9 23t9.5 22.5t23 9
t22.5 -9.5l103 -106l234 236q9 9 22.5 9t22.5 -9.5t9.5 -22.5t-9.5 -22z" />
    <glyph glyph-name="uniE650" unicode="&#xe650;" 
d="M832 -32h-640q-40 0 -68 28t-28 68v640q0 40 28 68t68 28h640q40 0 68 -28t28 -68v-640q0 -40 -28 -68t-68 -28zM192 736q-13 0 -22.5 -9.5t-9.5 -22.5v-640q0 -13 9.5 -22.5t22.5 -9.5h640q13 0 22.5 9.5t9.5 22.5v640q0 13 -9.5 22.5t-22.5 9.5h-640z" />
    <glyph glyph-name="uniE651" unicode="&#xe651;" 
d="M727 502.5q-9 9.5 -22.5 9.5t-22.5 -9l-234 -236l-103 106q-9 9 -22.5 9.5t-23 -9t-9.5 -22.5t9 -23l126 -129h1v-1q1 -1 7 -4q0 -1 1 -1.5t2 -1.5q6 -2 12 -2t12 2q1 1 2 1.5t2 1.5q5 3 7 4v1l256 259q10 9 9.5 22t-9.5 22.5zM832 -32h-640q-40 0 -68 28t-28 68v640
q0 40 28 68t68 28h640q40 0 68 -28t28 -68v-640q0 -40 -28 -68t-68 -28zM192 736q-13 0 -22.5 -9.5t-9.5 -22.5v-640q0 -13 9.5 -22.5t22.5 -9.5h640q13 0 22.5 9.5t9.5 22.5v640q0 13 -9.5 22.5t-22.5 9.5h-640z" />
    <glyph glyph-name="uniE652" unicode="&#xe652;" 
d="M512 -64q-185 0 -316.5 131.5t-131.5 316.5t131.5 316.5t316.5 131.5t316.5 -131.5t131.5 -316.5t-131.5 -316.5t-316.5 -131.5zM512 768q-159 0 -271.5 -112.5t-112.5 -271.5t112.5 -271.5t271.5 -112.5t271.5 112.5t112.5 271.5t-112.5 271.5t-271.5 112.5z" />
    <glyph glyph-name="uniE653" unicode="&#xe653;" 
d="M828.5 699.5q-63.5 63.5 -145 97t-171.5 33.5t-171.5 -33.5t-145 -97t-97.5 -145t-34 -170.5t34 -170.5t97.5 -145t145 -97t171.5 -33.5t171.5 33.5t145 97t97.5 145t34 170.5t-34 170.5t-97.5 145zM736 352h-192v-192q0 -13 -9.5 -22.5t-22.5 -9.5t-22.5 9.5t-9.5 22.5
v192h-192q-13 0 -22.5 9.5t-9.5 22.5t9.5 22.5t22.5 9.5h192v192q0 13 9.5 22.5t22.5 9.5t22.5 -9.5t9.5 -22.5v-192h192q13 0 22.5 -9.5t9.5 -22.5t-9.5 -22.5t-22.5 -9.5z" />
    <glyph glyph-name="uniE654" unicode="&#xe654;" 
d="M512 -62q-90 0 -171.5 33.5t-145 97t-97.5 145t-34 170.5t34 170.5t97.5 145t145 97t171.5 33.5t171.5 -33.5t145 -97t97.5 -145t34 -170.5t-34 -170.5t-97.5 -145t-145 -97t-171.5 -33.5zM512 766q-77 0 -147 -29t-124.5 -83t-83.5 -123.5t-29 -146.5t29 -146.5
t83.5 -123.5t124.5 -83t147 -29t147 29t124.5 83t83.5 124t29 146.5t-29 146t-83.5 123.5t-124.5 83t-147 29zM736 416h-192v192q0 13 -9.5 22.5t-22.5 9.5t-22.5 -9.5t-9.5 -22.5v-192h-192q-13 0 -22.5 -9.5t-9.5 -22.5t9.5 -22.5t22.5 -9.5h192v-192q0 -13 9.5 -22.5
t22.5 -9.5t22.5 9.5t9.5 22.5v192h192q13 0 22.5 9.5t9.5 22.5t-9.5 22.5t-22.5 9.5z" />
    <glyph glyph-name="uniE655" unicode="&#xe655;" 
d="M800 416h-256v256q0 13 -9.5 22.5t-22.5 9.5t-22.5 -9.5t-9.5 -22.5v-256h-256q-13 0 -22.5 -9.5t-9.5 -22.5t9.5 -22.5t22.5 -9.5h256v-256q0 -13 9.5 -22.5t22.5 -9.5t22.5 9.5t9.5 22.5v256h256q13 0 22.5 9.5t9.5 22.5t-9.5 22.5t-22.5 9.5z" />
    <glyph glyph-name="uniE656" unicode="&#xe656;" 
d="M726 295q-4 0 -7 1q-13 3 -20 14t-5 24q6 28 6 56q0 93 -54 168q-8 11 -6 24t13 21t24 5.5t21 -13.5q66 -92 66 -205q0 -35 -7 -69q-2 -11 -11 -18.5t-20 -7.5zM886 153q-7 0 -14 3q-11 6 -15.5 18.5t0.5 24.5q41 84 41 179q0 156 -103 273q-9 10 -8 23.5t11 22t23 8
t22 -10.5q58 -66 88.5 -147.5t30.5 -168.5q0 -109 -47 -207q-8 -18 -29 -18zM864 0q-13 0 -23 9l-703 704q-9 9 -9 22t9.5 22.5t22.5 9.5t22 -9l704 -703q9 -10 9 -23t-9.5 -22.5t-22.5 -9.5zM525 799q-34 0 -68 -35l-93 -96l212 -212v287q0 25 -14.5 40.5t-36.5 15.5z
M96 482v-196q0 -40 28 -67t68 -27h82l183 -190q34 -34 67 -34q23 0 37.5 16t14.5 41v159l-391 391q-38 -2 -63.5 -28.5t-25.5 -64.5z" />
    <glyph glyph-name="uniE657" unicode="&#xe657;" 
d="M963 67l-49 417q-4 36 -31 67t-62 40l-5 1q-16 4 -16 48v64q0 40 -27.5 68t-66.5 28h-36q-39 0 -66.5 -23.5t-27.5 -56.5v-48q0 -1 -0.5 -2.5t0.5 -2.5q2 -7 0 -24.5t-9 -25.5q-8 -9 -22 -9h-80q-4 0 -10.5 11t-6.5 24v64q0 40 -27.5 66.5t-67.5 26.5h-32
q-40 0 -68.5 -26.5t-28.5 -66.5v-32q0 -17 -11.5 -36.5t-27.5 -27.5l-13 -6q-31 -16 -54.5 -49.5t-27.5 -69.5l-27 -419q-4 -40 22 -69.5t67 -29.5h160q38 0 68 27t34 66l19 192q1 12 10 23.5t13 11.5h96q14 0 25.5 -10.5t12.5 -24.5l20 -192q4 -39 33.5 -66t68.5 -27h163
q41 0 67 29.5t21 69.5zM352 96h-224q-13 0 -22.5 9.5t-9.5 22.5t9.5 22.5t22.5 9.5h224q13 0 22.5 -9.5t9.5 -22.5t-9.5 -22.5t-22.5 -9.5zM896 96h-224q-13 0 -22.5 9.5t-9.5 22.5t9.5 22.5t22.5 9.5h224q13 0 22.5 -9.5t9.5 -22.5t-9.5 -22.5t-22.5 -9.5z" />
    <glyph glyph-name="uniE658" unicode="&#xe658;" 
d="M887 279l-353 350l-1 1h-1v1q-10 9 -23 9t-22 -10l-350 -353q-10 -9 -10 -22.5t9.5 -22.5t23 -9t22.5 9l328 331l332 -330q10 -9 23 -9t22.5 9.5t9.5 23t-10 22.5z" />
    <glyph glyph-name="uniE659" unicode="&#xe659;" 
d="M205 33h-11q-53 5 -93 55t-59 132.5t-11 179.5q12 150 74.5 246t143.5 89q55 -5 106 -76q8 -11 5.5 -24t-13 -21t-23.5 -5.5t-21 12.5q-34 48 -59 50q-47 4 -93 -75.5t-56 -201.5q-7 -80 7 -149t40.5 -107t57.5 -41q39 -4 75.5 42t56.5 125q3 11 11.5 17.5t19.5 6.5h300
q11 0 19.5 -6.5t11.5 -17.5q22 -80 58.5 -125.5t76.5 -40.5q22 2 42 24t34 60q35 91 22.5 215t-64.5 206q-46 73 -92 68q-29 -3 -60 -49q-9 -14 -26 -14h-237q-13 0 -22.5 9.5t-9.5 22.5t9.5 22.5t22.5 9.5h220q45 57 97 62q80 9 145.5 -87t80.5 -244q14 -139 -26 -244
q-21 -56 -54.5 -88.5t-75.5 -36.5q-61 -6 -113.5 44.5t-82.5 145.5h-252q-27 -90 -75.5 -140.5t-106.5 -50.5zM320 448h-32v32q0 13 -9.5 22.5t-22.5 9.5t-22.5 -9.5t-9.5 -22.5v-32h-32q-13 0 -22.5 -9.5t-9.5 -22.5t9.5 -22.5t22.5 -9.5h32v-32q0 -13 9.5 -22.5t22.5 -9.5
t22.5 9.5t9.5 22.5v32h32q13 0 22.5 9.5t9.5 22.5t-9.5 22.5t-22.5 9.5zM800 512zM736 512q0 26 19 45t45 19t45 -19t19 -45t-19 -45t-45 -19t-45 19t-19 45zM672 384zM608 384q0 26 19 45t45 19t45 -19t19 -45t-19 -45t-45 -19t-45 19t-19 45z" />
    <glyph glyph-name="uniE65A" unicode="&#xe65a;" 
d="M516 544q-3 0 -6 1l-356 64q-11 2 -18.5 10.5t-7.5 20.5v96q0 40 28 68t68 28h576q40 0 68 -28t28 -68v-96q0 -12 -7.5 -20.5t-18.5 -10.5l-348 -64q-3 -1 -6 -1zM192 667l324 -58l316 58v69q0 13 -9.5 22.5t-22.5 9.5h-576q-13 0 -22.5 -9.5t-9.5 -22.5v-69zM800 -64
h-576q-40 0 -68 28t-28 68v480q0 13 9.5 22.5t22.5 9.5t22.5 -9.5t9.5 -22.5v-480q0 -13 9.5 -22.5t22.5 -9.5h576q13 0 22.5 9.5t9.5 22.5v480q0 13 9.5 22.5t22.5 9.5t22.5 -9.5t9.5 -22.5v-480q0 -40 -28 -68t-68 -28zM608 256q13 0 22.5 9.5t9.5 22.5t-9.5 22.5
t-22.5 9.5h-52l76 73q10 10 10 23t-9 22.5t-22.5 9.5t-22.5 -9l-77 -73l-73 73q-9 9 -22.5 9t-23 -9.5t-9.5 -22.5t10 -22l74 -74h-51q-14 0 -23 -9.5t-9 -22.5t9 -22.5t23 -9.5h64v-32h-64q-14 0 -23 -9.5t-9 -22.5t9 -22.5t23 -9.5h64v-64q0 -14 9.5 -23t22.5 -9t22.5 9
t9.5 23v64h64q13 0 22.5 9.5t9.5 22.5t-9.5 22.5t-22.5 9.5h-64v32h64z" />
    <glyph glyph-name="uniE65B" unicode="&#xe65b;" 
d="M896 473l-1 5q0 16 -14 25l-42 29l26 46q8 13 2 28q-40 94 -123 155q-13 10 -28 5l-49 -15l-19 48q-6 15 -21 19q-49 14 -98.5 14t-98.5 -14q-16 -4 -22 -19l-19 -48l-49 15q-15 4 -28 -5q-83 -61 -123 -155q-6 -15 2 -28l26 -46l-42 -29q-13 -9 -14 -25v-4q-1 -8 -1 -13
q0 -94 45 -177q7 -14 23 -16l50 -8l-3 -51q-1 -16 10 -26q78 -68 179 -86q2 -1 5 -1q13 0 22 9l37 34l37 -34q12 -11 27 -8q101 18 179 86q12 10 10 26l-3 51l50 8q16 2 24 16q44 83 44 177v12zM528 288q-73 0 -124.5 51.5t-51.5 124.5t51.5 124.5t124.5 51.5t124.5 -51.5
t51.5 -124.5t-51.5 -124.5t-124.5 -51.5zM778 145q-79 -64 -178 -82q-5 0 -11 1l28 -106q7 -20 27 -24h6q16 0 27 12l50 58l94 -23q23 -6 37 12.5t0 40.5zM468 63q-3 0 -6 1q-102 18 -183 86l-82 -118q-13 -20 1 -38.5t37 -12.5l93 23l50 -57q11 -13 27 -13q3 0 7 1
q20 4 26 25l31 103h-1z" />
    <glyph glyph-name="uniE65C" unicode="&#xe65c;" 
d="M864 512h-189q12 28 19.5 83t0.5 107q-5 45 -30 77.5t-63 45.5q-29 10 -56.5 5.5t-43.5 -20.5q-12 -12 -22 -35t-15.5 -41t-13.5 -52q-17 -70 -28 -89q-20 -34 -57.5 -57.5t-51.5 -23.5h-90q-13 0 -22.5 -9.5t-9.5 -22.5v-448q0 -13 9.5 -22.5t22.5 -9.5h87q8 0 45 -16
t91.5 -32t104.5 -16h216q33 0 68.5 13t51 38.5t44 207.5t28.5 220q0 39 -31 68t-65 29zM96 512q-13 0 -22.5 -9.5t-9.5 -22.5v-448q0 -13 9.5 -22.5t22.5 -9.5t22.5 9.5t9.5 22.5v448q0 13 -9.5 22.5t-22.5 9.5z" />
    <glyph glyph-name="uniE65D" unicode="&#xe65d;" 
d="M512 830q-91 0 -173.5 -35.5t-142 -95t-95 -142t-35.5 -173.5t35.5 -173.5t95 -142t142 -95t173.5 -35.5t173.5 35.5t142 95t95 142t35.5 173.5t-35.5 173.5t-95 142t-142 95t-173.5 35.5zM544 160q0 -13 -9.5 -22.5t-22.5 -9.5t-22.5 9.5t-9.5 22.5v288q0 13 9.5 22.5
t22.5 9.5t22.5 -9.5t9.5 -22.5v-288zM512 544q-20 0 -34 14t-14 34t14 34t34 14t34 -14t14 -34t-14 -34t-34 -14z" />
    <glyph glyph-name="uniE65E" unicode="&#xe65e;" 
d="M512 -62q-91 0 -173.5 35.5t-142 95t-95 142t-35.5 173.5t35.5 173.5t95 142t142 95t173.5 35.5t173.5 -35.5t142 -95t95 -142t35.5 -173.5t-35.5 -173.5t-95 -142t-142 -95t-173.5 -35.5zM512 766q-104 0 -192 -51t-139 -139t-51 -192t51 -192t139 -139t192 -51t192 51
t139 139t51 192t-51 192t-139 139t-192 51zM512 592zM464 592q0 20 14 34t34 14t34 -14t14 -34t-14 -34t-34 -14t-34 14t-14 34zM512 128q-13 0 -22.5 9.5t-9.5 22.5v288q0 13 9.5 22.5t22.5 9.5t22.5 -9.5t9.5 -22.5v-288q0 -13 -9.5 -22.5t-22.5 -9.5z" />
    <glyph glyph-name="uniE65F" unicode="&#xe65f;" 
d="M952 402l-384 419q-15 17 -35.5 9t-20.5 -30v-225q-112 -7 -203 -63.5t-156 -158.5q-30 -48 -52.5 -104.5t-28 -78.5t-7.5 -36q-5 -23 15 -34t37 4q5 5 19 15.5t52.5 33.5t82 42.5t109 36.5t132.5 20v-284q0 -22 20 -30q6 -2 12 -2q14 0 23 10l384 413q9 9 9 21.5
t-8 21.5z" />
    <glyph glyph-name="uniE660" unicode="&#xe660;" 
d="M544 -64q-6 0 -12 2q-20 8 -20 30v287q-67 -3 -132.5 -20.5t-108.5 -36.5t-82.5 -43.5t-52 -34.5t-18.5 -15q-18 -16 -38 -5t-15 34q2 14 7.5 36t28 78.5t52.5 104.5q69 109 168.5 166t222.5 57q13 0 22.5 -9.5t9.5 -22.5t-9.5 -22.5t-22.5 -9.5q-68 0 -128 -21
t-100.5 -52t-74.5 -74.5t-53 -80t-35 -75.5q182 111 391 111q13 0 22.5 -9.5t9.5 -22.5v-238l308 330l-308 335v-43q0 -13 -9.5 -22.5t-22.5 -9.5t-22.5 9.5t-9.5 22.5v125q0 21 20.5 29t35.5 -8l384 -416q8 -9 8 -21.5t-9 -21.5l-384 -413q-9 -10 -23 -10z" />
    <glyph glyph-name="uniE661" unicode="&#xe661;" 
d="M512 832q-185 0 -316.5 -131.5t-131.5 -316.5t131.5 -316.5t316.5 -131.5t316.5 131.5t131.5 316.5t-131.5 316.5t-316.5 131.5zM641 320q13 0 22.5 -9.5t9.5 -22.5t-9.5 -22.5t-22.5 -9.5h-97v-95q0 -13 -9.5 -22.5t-22.5 -9.5t-22.5 9.5t-9.5 22.5v95h-95
q-13 0 -22.5 9.5t-9.5 22.5t9.5 22.5t22.5 9.5h95v64h-95q-13 0 -22.5 9.5t-9.5 22.5t9.5 22.5t22.5 9.5h95v20l-118 118q-10 10 -9.5 23t9.5 22.5t22.5 9.5t22.5 -9l108 -108l101 107q10 10 23 10t22.5 -9t10 -22t-9.5 -23l-118 -124v-15h97q13 0 22.5 -9.5t9.5 -22.5
t-9.5 -22.5t-22.5 -9.5h-97v-64h97z" />
    <glyph glyph-name="uniE662" unicode="&#xe662;" 
d="M512 832q-185 0 -316.5 -131.5t-131.5 -316.5t131.5 -316.5t316.5 -131.5t316.5 131.5t131.5 316.5t-131.5 316.5t-316.5 131.5zM512 0q-159 0 -271.5 112.5t-112.5 271.5t112.5 271.5t271.5 112.5t271.5 -112.5t112.5 -271.5t-112.5 -271.5t-271.5 -112.5zM641 384
q13 0 22.5 9.5t9.5 22.5t-9.5 22.5t-22.5 9.5h-97v15l119 124q9 10 8.5 23t-10 22t-22.5 9t-22 -10l-102 -107l-107 108q-10 9 -23 9t-22.5 -9.5t-10 -22.5t9.5 -23l118 -118v-20h-95q-13 0 -22.5 -9.5t-9.5 -22.5t9.5 -22.5t22.5 -9.5h95v-64h-95q-13 0 -22.5 -9.5
t-9.5 -22.5t9.5 -22.5t22.5 -9.5h95v-95q0 -13 9.5 -22.5t22.5 -9.5t22.5 9.5t9.5 22.5v95h97q13 0 22.5 9.5t9.5 22.5t-9.5 22.5t-22.5 9.5h-97v64h97z" />
    <glyph glyph-name="uniE663" unicode="&#xe663;" 
d="M859 32h-694q-42 0 -71.5 29.5t-29.5 71.5v502q0 42 29.5 71.5t71.5 29.5h694q42 0 71.5 -29.5t29.5 -71.5v-502q0 -42 -29.5 -71.5t-71.5 -29.5zM165 672q-15 0 -26 -11t-11 -26v-502q0 -15 11 -26t26 -11h694q15 0 26 11t11 26v502q0 15 -11 26t-26 11h-694zM800 480
h-576q-13 0 -22.5 9.5t-9.5 22.5t9.5 22.5t22.5 9.5h576q13 0 22.5 -9.5t9.5 -22.5t-9.5 -22.5t-22.5 -9.5zM320 160h-96q-13 0 -22.5 9.5t-9.5 22.5t9.5 22.5t22.5 9.5h96q13 0 22.5 -9.5t9.5 -22.5t-9.5 -22.5t-22.5 -9.5z" />
    <glyph glyph-name="uniE664" unicode="&#xe664;" 
d="M512 190q-79 0 -135.5 56.5t-56.5 135.5v256q0 79 56.5 135.5t135.5 56.5t135.5 -56.5t56.5 -135.5v-256q0 -79 -56.5 -135.5t-135.5 -56.5zM512 766q-53 0 -90.5 -37.5t-37.5 -90.5v-256q0 -53 37.5 -90.5t90.5 -37.5t90.5 37.5t37.5 90.5v256q0 53 -37.5 90.5
t-90.5 37.5zM864 416v128q0 13 -9.5 22.5t-22.5 9.5t-22.5 -9.5t-9.5 -22.5v-128q0 -120 -84.5 -205t-203.5 -85t-203.5 85t-84.5 205v128q0 13 -9.5 22.5t-22.5 9.5t-22.5 -9.5t-9.5 -22.5v-128q0 -138 92.5 -239t227.5 -114v-63h-192q-13 0 -22.5 -9.5t-9.5 -22.5
t9.5 -22.5t22.5 -9.5h448q13 0 22.5 9.5t9.5 22.5t-9.5 22.5t-22.5 9.5h-192v63q135 13 227.5 114t92.5 239z" />
    <glyph glyph-name="uniE665" unicode="&#xe665;" 
d="M512 190q79 0 135.5 56.5t56.5 135.5v256q0 79 -56.5 135.5t-135.5 56.5t-135.5 -56.5t-56.5 -135.5v-256q0 -79 56.5 -135.5t135.5 -56.5zM864 416v128q0 13 -9.5 22.5t-22.5 9.5t-22.5 -9.5t-9.5 -22.5v-128q0 -120 -84.5 -205t-203.5 -85t-203.5 85t-84.5 205v128
q0 13 -9.5 22.5t-22.5 9.5t-22.5 -9.5t-9.5 -22.5v-128q0 -138 92.5 -239t227.5 -114v-63h-192q-13 0 -22.5 -9.5t-9.5 -22.5t9.5 -22.5t22.5 -9.5h448q13 0 22.5 9.5t9.5 22.5t-9.5 22.5t-22.5 9.5h-192v63q135 13 227.5 114t92.5 239z" />
    <glyph glyph-name="uniE666" unicode="&#xe666;" 
d="M723 -66q-25 0 -48 23l-124 126q-1 1 -3 2q-10 13 -15.5 21.5t-11.5 25.5t-6 36q0 50 35 85t85 35q38 0 69 -22l21 -14l4 4q35 32 82 32q50 0 85 -35t35 -85q0 -47 -35 -84l-125 -127q-23 -23 -48 -23zM597 126l124 -124l2 -2q1 1 3 2l124 126q17 18 17 40
q0 23 -16.5 39.5t-39.5 16.5q-22 0 -38 -15l-22 -22q-8 -8 -19.5 -9t-21.5 6l-43 30q-14 10 -32 10q-23 0 -39.5 -16.5t-16.5 -39.5q0 -12 3.5 -20t14.5 -22zM387 -66q-2 0 -3 1q-122 10 -203.5 61t-81.5 117q0 31 26.5 58.5t70.5 47t91.5 32.5t97.5 21v12q-40 30 -68 74
t-40 91t-16.5 81.5t-4.5 66.5q0 110 61 171.5t169 61.5q107 0 163.5 -60t56.5 -173q0 -52 -16.5 -113.5t-45.5 -116.5q-6 -11 -18.5 -15t-24.5 2t-15.5 19t2.5 25q25 46 39.5 100.5t14.5 98.5q0 169 -156 169q-166 0 -166 -169q0 -28 4 -58.5t14.5 -72t35.5 -78.5t61 -60
q14 -10 14 -27v-58q0 -12 -8 -21t-20 -11q-104 -10 -181 -42.5t-77 -55.5q0 -33 64 -69.5t163 -45.5q13 -1 21.5 -11t7.5 -23t-10.5 -21.5t-21.5 -8.5z" />
    <glyph glyph-name="uniE667" unicode="&#xe667;" 
d="M663 -212h-302q-92 0 -156.5 65t-64.5 156q0 55 25 102t68 78q13 -21 26 -38q-33 -24 -53 -61.5t-20 -80.5q0 -72 51.5 -123t123.5 -51h302q72 0 123.5 51t51.5 123q0 43 -20 80.5t-53 61.5q13 17 26 38q43 -31 68 -78t25 -102q0 -91 -64.5 -156t-156.5 -65zM512 67
q-51 0 -105.5 32t-98 83t-71.5 120t-28 138q0 101 40.5 186.5t110.5 135.5t152 50t152 -50t110.5 -135.5t40.5 -186.5q0 -69 -28.5 -138t-72 -120t-98 -83t-104.5 -32zM512 766q-69 0 -128 -44t-93.5 -119t-34.5 -163q0 -61 24.5 -121.5t61.5 -105t83 -72t87 -27.5
q40 0 86 28t83.5 72.5t62 105t24.5 120.5q0 88 -34.5 163t-93.5 119t-128 44z" />
    <glyph glyph-name="uniE668" unicode="&#xe668;" 
d="M769 192q-54 0 -91 -38l-310 172q15 28 15 58q0 17 -6 36l305 189q37 -33 85 -33q53 0 90.5 37.5t37.5 90.5t-37.5 90.5t-90.5 37.5t-90.5 -37.5t-37.5 -90.5q0 -20 8 -41l-302 -188q-38 37 -90 37q-53 0 -90.5 -37.5t-37.5 -90.5t37.5 -90.5t90.5 -37.5q38 0 70 21
l321 -179q-5 -18 -5 -34q0 -53 37.5 -90.5t90.5 -37.5t90.5 37.5t37.5 90.5t-37.5 90.5t-90.5 37.5zM767.5 768q26.5 0 45 -19t18.5 -45.5t-18.5 -45t-45 -18.5t-45.5 18.5t-19 45t19 45.5t45.5 19zM191 384.5q0 26.5 19 45t45.5 18.5t45 -18.5t18.5 -45t-18.5 -45.5
t-45 -19t-45.5 19t-19 45.5zM768.5 0q-26.5 0 -45 19t-18.5 45.5t18.5 45t45 18.5t45.5 -18.5t19 -45t-19 -45.5t-45.5 -19z" />
    <glyph glyph-name="uniE669" unicode="&#xe669;" 
d="M863 384q0 116 -68 211q-8 10 -21 12.5t-23.5 -5.5t-13 -21t5.5 -24q56 -78 56 -173t-56 -173q-8 -11 -5.5 -24t12.5 -21q9 -6 19 -6q16 0 26 13q68 95 68 211zM271.5 602q-10.5 8 -23.5 5.5t-21 -12.5q-68 -95 -68 -211t68 -211q10 -13 26 -13q10 0 19 6q10 8 12.5 21
t-5.5 24q-56 78 -56 173t56 173q8 11 5.5 24t-13 21zM851 757q-8 10 -21.5 11t-23.5 -8t-11 -22t8 -23q61 -69 93 -154.5t32 -176.5t-32 -176.5t-93 -154.5q-9 -10 -8 -23t11 -22q9 -8 21 -8q15 0 24 11q68 78 104.5 174t36.5 199t-36.5 199t-104.5 174zM97 384
q0 91 32.5 176.5t92.5 154.5q9 10 8 23t-11 22t-23 8t-22 -11q-68 -78 -104.5 -174t-36.5 -199t36.5 -199t104.5 -174q9 -11 24 -11q12 0 21 8q10 9 11 22t-8 23q-60 69 -92.5 154.5t-32.5 176.5zM692 248q6 8 10 13q0 1 1 3l1 1q5 9 8 14q1 1 1.5 2.5t1.5 2.5q4 8 6 15
q1 1 1.5 3t0.5 3q4 9 5 14q1 1 1.5 4t1.5 4q2 10 3 13l2 11q0 1 0.5 4.5t0.5 5.5q1 12 1 23q0 93 -65.5 158.5t-158.5 65.5t-158.5 -65.5t-65.5 -158.5q0 -12 1 -24h1q5 -47 28 -88q6 -10 13 -19q0 -1 1 -1q6 -9 14 -17v-1l1 -1q7 -8 15 -15l1 -1v0q39 -35 90 -49
q-9 -14 -18 -23q-10 -10 -9.5 -23t10 -22.5t22.5 -9.5t23 10q26 27 42 60q1 0 3 0.5t3 0.5q7 0 11 1q5 0 11 2q6 1 11 2q3 0 10 2t11 4q5 1 9 3l12 4q1 1 7 4l12 6l6 4q7 4 12 8q1 0 5 3q7 6 12 10l4 3l11 11l2 2q1 1 1 2q7 6 11 12q1 2 3 4z" />
    <glyph glyph-name="uniE66A" unicode="&#xe66a;" 
d="M863 384q0 116 -68 211q-8 10 -21 12.5t-23.5 -5.5t-13 -21t5.5 -24q56 -78 56 -173t-56 -173q-8 -11 -5.5 -24t12.5 -21q9 -6 19 -6q16 0 26 13q68 95 68 211zM271.5 602q-10.5 8 -23.5 5.5t-21 -12.5q-68 -95 -68 -211t68 -211q10 -13 26 -13q10 0 19 6q10 8 12.5 21
t-5.5 24q-56 78 -56 173t56 173q8 11 5.5 24t-13 21zM851 757q-8 10 -21.5 11t-23.5 -8t-11 -22t8 -23q61 -69 93 -154.5t32 -176.5t-32 -176.5t-93 -154.5q-9 -10 -8 -23t11 -22q9 -8 21 -8q15 0 24 11q68 78 104.5 174t36.5 199t-36.5 199t-104.5 174zM97 384
q0 91 32.5 176.5t92.5 154.5q9 10 8 23t-11 22t-23 8t-22 -11q-68 -78 -104.5 -174t-36.5 -199t36.5 -199t104.5 -174q9 -11 24 -11q12 0 21 8q10 9 11 22t-8 23q-60 69 -92.5 154.5t-32.5 176.5zM514.5 608q-92.5 0 -158.5 -65.5t-66 -158.5q0 -48 19.5 -91.5t55.5 -75.5
q10 -9 23 -8t22 11t8 23t-10 22q-54 48 -54 119q0 66 47 113t113 47t113 -47t47 -113t-47 -113t-113 -47h-11q-23 0 -30 -21q-12 -33 -36 -58q-10 -10 -9.5 -23t10 -22.5t22.5 -9.5t23 10q26 27 42 60q89 4 151 69t62 155q0 93 -65.5 158.5t-158 65.5z" />
    <glyph glyph-name="uniE66B" unicode="&#xe66b;" 
d="M893.5 524.5q-8.5 19.5 -29.5 19.5h-248l55 249q5 24 -16 35.5t-38 -5.5l-480 -480q-15 -15 -6.5 -35t29.5 -20h242l-112 -309q-4 -11 -0.5 -21.5t13.5 -16.5q8 -5 17 -5q13 0 23 10l544 543q15 16 6.5 35.5z" />
    <glyph glyph-name="uniE66C" unicode="&#xe66c;" 
d="M864 704h-352q-13 0 -22.5 -9.5t-9.5 -22.5t9.5 -22.5t22.5 -9.5h352q13 0 22.5 -9.5t9.5 -22.5v-512q0 -13 -9.5 -22.5t-22.5 -9.5h-704q-13 0 -22.5 9.5t-9.5 22.5v512q0 13 9.5 22.5t22.5 9.5h96q13 0 22.5 9.5t9.5 22.5t-9.5 22.5t-22.5 9.5h-96q-40 0 -68 -28
t-28 -68v-512q0 -40 28 -68t68 -28h704q40 0 68 28t28 68v512q0 40 -28 68t-68 28zM320 736h128q13 0 22.5 9.5t9.5 22.5t-9.5 22.5t-22.5 9.5h-128q-13 0 -22.5 -9.5t-9.5 -22.5t9.5 -22.5t22.5 -9.5zM400 164q7 -4 16 -4q18 0 28 16q6 11 3 24t-15 20q-35 20 -55 55.5
t-20 76.5t20 76.5t55 55.5q12 7 15 20t-3 24q-13 21 -36 14l-158 -32q-13 -3 -20.5 -14t-4.5 -24q2 -11 11 -18.5t20 -7.5q3 0 6 1l59 12q-28 -50 -28 -107q0 -58 28.5 -108t78.5 -80zM622 541q-12 6 -24.5 2.5t-19.5 -15t-3.5 -24t15.5 -19.5q36 -20 56.5 -56t20.5 -77
q0 -40 -20 -75.5t-55 -56.5q-11 -6 -14.5 -19t3.5 -25q5 -8 14 -12q9 -6 19 -6q6 0 12 3l155 63q12 5 17 17.5t0 24.5t-17 17t-25 0l-43 -18q18 43 18 87q0 58 -29.5 109t-79.5 80z" />
    <glyph glyph-name="uniE66D" unicode="&#xe66d;" 
d="M320 -64q-9 0 -17 5q-10 6 -13.5 16.5t0.5 21.5l112 309h-242q-21 0 -29.5 19.5t6.5 35.5l480 480q10 9 23 9t22.5 -9.5t9.5 -22.5t-9 -23l-426 -425h211q17 0 26.5 -13.5t3.5 -29.5l-79 -216l388 387h-211q-13 0 -22.5 9.5t-9.5 22.5t9.5 22.5t22.5 9.5h288
q21 0 29.5 -19.5t-6.5 -35.5l-544 -544q-10 -9 -23 -9z" />
    <glyph glyph-name="uniE66E" unicode="&#xe66e;" 
d="M512 224q-13 0 -22.5 9.5t-9.5 22.5v96q0 13 9.5 22.5t22.5 9.5t22.5 -9.5t9.5 -22.5v-96q0 -13 -9.5 -22.5t-22.5 -9.5zM828 687q-9 17 -28 17h-576q-19 0 -28 -17t1 -33l123 -184v-150v-32v-256q0 -40 28 -68t68 -28h192q40 0 68 28t28 68v245v191l123 186q10 16 1 33z
M645 495q-5 -8 -5 -17v-157v-1v-288q0 -13 -9.5 -22.5t-22.5 -9.5h-192q-13 0 -22.5 9.5t-9.5 22.5v256v32v160q0 10 -5 18l-95 142h457zM608 736h-192q-13 0 -22.5 9.5t-9.5 22.5t9.5 22.5t22.5 9.5h192q13 0 22.5 -9.5t9.5 -22.5t-9.5 -22.5t-22.5 -9.5z" />
    <glyph glyph-name="uniE66F" unicode="&#xe66f;" 
d="M512 224q-13 0 -22.5 9.5t-9.5 22.5v96q0 13 9.5 22.5t22.5 9.5t22.5 -9.5t9.5 -22.5v-96q0 -13 -9.5 -22.5t-22.5 -9.5zM884.5 759q-10.5 8 -23.5 6t-21 -12l-193 -256q-7 -9 -7 -19v-158v-288q0 -13 -9.5 -22.5t-22.5 -9.5h-192q-13 0 -22.5 9.5t-9.5 22.5v189v99v160
q0 11 -6 19l-190 256q-8 11 -21 13t-24 -6t-12.5 -21t5.5 -24l184 -248v-149v-99v-189q0 -40 28 -68t68 -28h192q40 0 68 28t28 68v192v243l187 247q8 11 6 24t-12.5 21zM512 608q-13 0 -22.5 9.5t-9.5 22.5v160q0 13 9.5 22.5t22.5 9.5t22.5 -9.5t9.5 -22.5v-160
q0 -13 -9.5 -22.5t-22.5 -9.5z" />
    <glyph glyph-name="uniE670" unicode="&#xe670;" 
d="M954 82l-137 180q79 76 79 185q0 106 -75 181t-181 75t-181 -75t-75 -181t75 -181t181 -75q67 0 125 33l138 -181q10 -12 26 -12q11 0 19 6q11 8 12.5 21.5t-6.5 23.5zM448 447.5q0 79.5 56.5 135.5t136 56t135.5 -56t56 -135.5t-56 -136t-135.5 -56.5t-136 56.5
t-56.5 136zM320 576h-192q-13 0 -22.5 9.5t-9.5 22.5t9.5 22.5t22.5 9.5h192q13 0 22.5 -9.5t9.5 -22.5t-9.5 -22.5t-22.5 -9.5zM256 320h-128q-13 0 -22.5 9.5t-9.5 22.5t9.5 22.5t22.5 9.5h128q13 0 22.5 -9.5t9.5 -22.5t-9.5 -22.5t-22.5 -9.5zM480 96h-352
q-13 0 -22.5 9.5t-9.5 22.5t9.5 22.5t22.5 9.5h352q13 0 22.5 -9.5t9.5 -22.5t-9.5 -22.5t-22.5 -9.5z" />
    <glyph glyph-name="uniE671" unicode="&#xe671;" 
d="M512 291q-39 0 -66 -27.5t-27 -65.5q0 -35 24 -62l-1 -3v-5q0 -29 20.5 -49.5t49.5 -20.5t49.5 20.5t20.5 49.5q0 2 -1 5v3q24 27 24 62q0 38 -27 65.5t-66 27.5zM535 158v-30q0 -10 -6.5 -16.5t-16.5 -6.5t-16.5 6.5t-6.5 16.5v30q-24 13 -24 40q0 19 14 32.5t33 13.5
t33 -13.5t14 -32.5q-1 -27 -24 -40zM791 477v140q0 115 -81.5 197t-197.5 82t-197.5 -82t-81.5 -197v-140q-39 0 -66 -27t-27 -66v-419q0 -38 27 -65.5t66 -27.5h558q39 0 66 27.5t27 65.5v419q0 39 -27 66t-66 27zM279 617q0 96 68.5 164t164.5 68t164.5 -68t68.5 -164
v-140h-466v140zM838 -35q0 -19 -14 -32.5t-33 -13.5h-558q-20 0 -33.5 13.5t-13.5 32.5v419q0 19 13.5 33t33.5 14h558q20 0 33.5 -14t13.5 -33v-419z" />
    <glyph glyph-name="uniE672" unicode="&#xe672;" 
d="M384 576h512q13 0 22.5 9.5t9.5 22.5t-9.5 22.5t-22.5 9.5h-512q-13 0 -22.5 -9.5t-9.5 -22.5t9.5 -22.5t22.5 -9.5zM896 416h-512q-13 0 -22.5 -9.5t-9.5 -22.5t9.5 -22.5t22.5 -9.5h512q13 0 22.5 9.5t9.5 22.5t-9.5 22.5t-22.5 9.5zM896 192h-512q-13 0 -22.5 -9.5
t-9.5 -22.5t9.5 -22.5t22.5 -9.5h512q13 0 22.5 9.5t9.5 22.5t-9.5 22.5t-22.5 9.5zM192 608zM128 608q0 26 19 45t45 19t45 -19t19 -45t-19 -45t-45 -19t-45 19t-19 45zM192 384zM128 384q0 26 19 45t45 19t45 -19t19 -45t-19 -45t-45 -19t-45 19t-19 45zM192 160zM128 160
q0 26 19 45t45 19t45 -19t19 -45t-19 -45t-45 -19t-45 19t-19 45z" />
    <glyph glyph-name="uniE673" unicode="&#xe673;" 
d="M792.5 410.5q-9.5 9.5 -22.5 9.5t-22 -10l-204 -203v561q0 13 -9.5 22.5t-22.5 9.5t-22.5 -9.5t-9.5 -22.5v-563l-234 235q-9 10 -22.5 10t-23 -9.5t-9.5 -22.5t10 -23l287 -289q5 -5 11 -7q6 -3 13 -3q17 0 26 15l255 254q9 9 9 22.5t-9.5 23zM864 -32h-704
q-13 0 -22.5 9.5t-9.5 22.5t9.5 22.5t22.5 9.5h704q13 0 22.5 -9.5t9.5 -22.5t-9.5 -22.5t-22.5 -9.5z" />
    <glyph glyph-name="uniE674" unicode="&#xe674;" 
d="M736 -96h-448q-40 0 -68 28t-28 68v768q0 40 28 68t68 28h448q40 0 68 -28t28 -68v-768q0 -40 -28 -68t-68 -28zM288 800q-13 0 -22.5 -9.5t-9.5 -22.5v-768q0 -13 9.5 -22.5t22.5 -9.5h448q13 0 22.5 9.5t9.5 22.5v768q0 13 -9.5 22.5t-22.5 9.5h-448zM512 0
q-26 0 -45 18.5t-19 45t19 45.5t45 19t45 -19t19 -45.5t-19 -45t-45 -18.5zM512 64v-32v32zM704 160h-384q-13 0 -22.5 9.5t-9.5 22.5v544q0 13 9.5 22.5t22.5 9.5h384q13 0 22.5 -9.5t9.5 -22.5v-544q0 -13 -9.5 -22.5t-22.5 -9.5zM352 224h320v480h-320v-480z" />
    <glyph glyph-name="uniE675" unicode="&#xe675;" 
d="M512 32v32v-32zM736 832h-448q-26 0 -45 -19t-19 -45v-768q0 -26 19 -45t45 -19h448q26 0 45 19t19 45v768q0 26 -19 45t-45 19zM512 0q-26 0 -45 18.5t-19 45t19 45.5t45 19t45 -19t19 -45.5t-19 -45t-45 -18.5zM704 192h-384v544h384v-544z" />
    <glyph glyph-name="uniE676" unicode="&#xe676;" 
d="M82 385q0 -117 57.5 -216t156.5 -156.5t216 -57.5t216 57.5t156.5 156.5t57.5 216t-57.5 216t-156.5 156.5t-216 57.5t-216 -57.5t-156.5 -156.5t-57.5 -216zM698 478q7 8 17.5 8.5t17 -6t6 -16.5t-8.5 -18l-198 -200q-8 -8 -20 -8q-11 -1 -20 8l-198 200q-7 8 -8 18
t6 16.5t17 6t17 -8.5l186 -187z" />
    <glyph glyph-name="uniE677" unicode="&#xe677;" 
d="M512 -45q117 0 216 57.5t156.5 156.5t57.5 216t-57.5 216t-156.5 156.5t-216 57.5t-216 -57.5t-156.5 -156.5t-57.5 -216t57.5 -216t156.5 -156.5t216 -57.5zM512 480l-186 -188q-7 -8 -17 -8.5t-17 6t-6 16.5t8 18l198 200q9 9 20 8q12 1 20 -8l198 -200q8 -8 8.5 -18
t-6 -16.5t-17 -6t-17.5 8.5z" />
    <glyph glyph-name="uniE678" unicode="&#xe678;" 
d="M82 385q0 -117 57.5 -216t156.5 -156.5t216 -57.5t216 57.5t156.5 156.5t57.5 216t-57.5 216t-156.5 156.5t-216 57.5t-216 -57.5t-156.5 -156.5t-57.5 -216zM607 385l-188 186q-8 7 -8.5 17.5t6 17t16.5 6t18 -8.5l200 -198q9 -8 8 -20q1 -12 -8 -20l-200 -198
q-8 -7 -18 -8t-16.5 5.5t-6 17t8.5 17.5z" />
    <glyph glyph-name="uniE679" unicode="&#xe679;" 
d="M512 815q-117 0 -216 -57.5t-156.5 -156.5t-57.5 -216t57.5 -216t156.5 -156.5t216 -57.5t216 57.5t156.5 156.5t57.5 216t-57.5 216t-156.5 156.5t-216 57.5zM606 199q7 -7 8 -17.5t-6 -17t-17 -5.5t-18 8l-200 198q-8 8 -8 20t8 20l200 198q8 8 18 8.5t17 -6t6 -17
t-8 -17.5l-188 -186z" />
    <glyph glyph-name="uniE67A" unicode="&#xe67a;" 
d="M747 384q0 -39 27.5 -66.5t66 -27.5t66 27.5t27.5 66.5t-27.5 66.5t-66 27.5t-66 -27.5t-27.5 -66.5zM90 384q0 -39 27.5 -66.5t66 -27.5t66 27.5t27.5 66.5t-27.5 66.5t-66 27.5t-66 -27.5t-27.5 -66.5zM418 384q0 -39 27.5 -66.5t66.5 -27.5t66.5 27.5t27.5 66.5
t-27.5 66.5t-66.5 27.5t-66.5 -27.5t-27.5 -66.5z" />
    <glyph glyph-name="uniE67B" unicode="&#xe67b;" 
d="M730 -8l-394 392l394 392q8 7 8.5 17.5t-6 17t-17 6t-18.5 -8.5l-406 -404q-8 -8 -8 -20t9 -20l405 -404q8 -8 18.5 -8.5t17 6t6 17t-8.5 17.5z" />
    <glyph glyph-name="uniE67C" unicode="&#xe67c;" 
d="M289.5 -42.5q6.5 -6.5 16.5 -6t18 8.5l406 404q9 8 8 20q1 12 -8 20l-406 404q-8 8 -18 8.5t-16.5 -6t-6 -17t8.5 -17.5l394 -392l-394 -392q-8 -7 -8.5 -17.5t6 -17z" />
    <glyph glyph-name="uniE67D" unicode="&#xe67d;" 
d="M937 162.5q7 6.5 6 17t-8 17.5l-404 406q-8 9 -20 9t-21 -9l-403 -406q-8 -7 -8.5 -17.5t6 -17t16.5 -6t18 8.5l392 394l391 -394q8 -8 18 -8.5t17 6z" />
    <glyph glyph-name="uniE67E" unicode="&#xe67e;" 
d="M902 603l-391 -394l-392 394q-8 8 -18 8.5t-16.5 -6t-6 -17t8.5 -17.5l403 -406q9 -9 21 -9t20 9l404 406q7 7 8 17.5t-6 17t-17 6t-18 -8.5z" />
    <glyph glyph-name="uniE67F" unicode="&#xe67f;" 
d="M951 77h-878l439 614z" />
    <glyph glyph-name="uniE680" unicode="&#xe680;" 
d="M512 77l-439 614h878z" />
    <glyph glyph-name="uniE681" unicode="&#xe681;" 
d="M819 823v-878l-614 439z" />
    <glyph glyph-name="uniE682" unicode="&#xe682;" 
d="M205 -55v878l614 -439z" />
    <glyph glyph-name="uniE683" unicode="&#xe683;" 
d="M672 64h-448q-40 0 -68 28t-28 68v576q0 40 28 68t68 28h448q40 0 68 -28t28 -68v-576q0 -40 -28 -68t-68 -28zM224 768q-13 0 -22.5 -9.5t-9.5 -22.5v-576q0 -13 9.5 -22.5t22.5 -9.5h448q13 0 22.5 9.5t9.5 22.5v576q0 13 -9.5 22.5t-22.5 9.5h-448zM800 -64h-480
q-13 0 -22.5 9.5t-9.5 22.5t9.5 22.5t22.5 9.5h480q13 0 22.5 9.5t9.5 22.5v608q0 13 9.5 22.5t22.5 9.5t22.5 -9.5t9.5 -22.5v-608q0 -40 -28 -68t-68 -28zM544 576h-256q-13 0 -22.5 9.5t-9.5 22.5t9.5 22.5t22.5 9.5h256q13 0 22.5 -9.5t9.5 -22.5t-9.5 -22.5t-22.5 -9.5
zM608 416h-320q-13 0 -22.5 9.5t-9.5 22.5t9.5 22.5t22.5 9.5h320q13 0 22.5 -9.5t9.5 -22.5t-9.5 -22.5t-22.5 -9.5zM608 256h-320q-13 0 -22.5 9.5t-9.5 22.5t9.5 22.5t22.5 9.5h320q13 0 22.5 -9.5t9.5 -22.5t-9.5 -22.5t-22.5 -9.5z" />
    <glyph glyph-name="uniE684" unicode="&#xe684;" 
d="M576 736h-128q-13 0 -22.5 9.5t-9.5 22.5t9.5 22.5t22.5 9.5h128q13 0 22.5 -9.5t9.5 -22.5t-9.5 -22.5t-22.5 -9.5zM819 550l36 35q9 10 9 23t-9.5 22.5t-22.5 9.5t-23 -9l-33 -33q-52 50 -120.5 78t-143.5 28q-159 0 -271.5 -112.5t-112.5 -271.5t112.5 -271.5
t271.5 -112.5t271.5 112.5t112.5 271.5q0 127 -77 230zM480 640q0 13 9.5 22.5t22.5 9.5t22.5 -9.5t9.5 -22.5v-32q0 -13 -9.5 -22.5t-22.5 -9.5t-22.5 9.5t-9.5 22.5v32zM224 288h-32q-13 0 -22.5 9.5t-9.5 22.5t9.5 22.5t22.5 9.5h32q13 0 22.5 -9.5t9.5 -22.5t-9.5 -22.5
t-22.5 -9.5zM544 0q0 -13 -9.5 -22.5t-22.5 -9.5t-22.5 9.5t-9.5 22.5v32q0 13 9.5 22.5t22.5 9.5t22.5 -9.5t9.5 -22.5v-32zM692 423l-160 -128q-9 -7 -20 -7q-15 0 -25 12q-8 10 -6.5 23.5t11.5 21.5l160 128q10 8 23.5 6.5t21.5 -11.5t6.5 -23.5t-11.5 -21.5zM832 288
h-32q-13 0 -22.5 9.5t-9.5 22.5t9.5 22.5t22.5 9.5h32q13 0 22.5 -9.5t9.5 -22.5t-9.5 -22.5t-22.5 -9.5z" />
    <glyph glyph-name="uniE685" unicode="&#xe685;" 
d="M576 736h-128q-13 0 -22.5 9.5t-9.5 22.5t9.5 22.5t22.5 9.5h128q13 0 22.5 -9.5t9.5 -22.5t-9.5 -22.5t-22.5 -9.5zM819 550l36 35q9 10 9 23t-9.5 22.5t-22.5 9.5t-23 -9l-33 -33q-52 50 -120.5 78t-143.5 28q-159 0 -271.5 -112.5t-112.5 -271.5t112.5 -271.5
t271.5 -112.5t271.5 112.5t112.5 271.5q0 127 -77 230zM544 2v30q0 13 -9.5 22.5t-22.5 9.5t-22.5 -9.5t-9.5 -22.5v-30q-113 11 -194 92t-92 194h30q13 0 22.5 9.5t9.5 22.5t-9.5 22.5t-22.5 9.5h-30q11 113 92 194t194 92v-30q0 -13 9.5 -22.5t22.5 -9.5t22.5 9.5
t9.5 22.5v30q113 -11 194 -92t92 -194h-30q-13 0 -22.5 -9.5t-9.5 -22.5t9.5 -22.5t22.5 -9.5h30q-11 -113 -92 -194t-194 -92zM652 473l-160 -128q-10 -8 -11.5 -21.5t6.5 -23.5q10 -12 25 -12q11 0 20 7l160 128q10 8 11.5 21.5t-6.5 23.5t-21.5 11.5t-23.5 -6.5z" />
    <glyph glyph-name="uniE686" unicode="&#xe686;" 
d="M890 146q-6 8 -13.5 19.5t-28.5 47t-36.5 68.5t-28 76t-12.5 77q0 118 -45.5 189t-117.5 98v15q0 40 -28 68t-68 28t-68 -28t-28 -68v-15q-72 -27 -117.5 -98t-45.5 -189q0 -34 -12.5 -77t-28.5 -76t-36 -67.5t-28.5 -47.5t-13.5 -19q-8 -12 -5 -26t16 -21t35.5 -18
t82 -33t115.5 -34q16 -50 52.5 -80.5t81.5 -30.5t81 30.5t53 80.5q56 12 115.5 34t82 32.5t35.5 17.5t16 21.5t-5 25.5zM480 736q0 13 9.5 22.5t22.5 9.5t22.5 -9.5t9.5 -22.5v-1q-11 1 -21 1h-22q-10 0 -21 -1v1zM512 -32q-34 0 -58 35q31 -3 58 -3t58 3q-24 -35 -58 -35z
" />
    <glyph glyph-name="uniE687" unicode="&#xe687;" 
d="M825 652l-386 -402l-229 239l-116 -123l334 -349l502 523z" />
    <glyph glyph-name="uniE688" unicode="&#xe688;" 
d="M928 608h-99q3 37 3 67q0 29 -3 63q0 12 -9.5 20.5t-21.5 8.5h-571q-13 0 -22 -8.5t-10 -20.5q-3 -35 -3 -63q0 -30 3 -67h-99q-13 0 -22.5 -9.5t-9.5 -22.5q0 -99 53.5 -161.5t138.5 -62.5q1 0 2.5 0.5t2.5 0.5q39 -81 96 -131.5t123 -60.5v-1v-128h-128
q-13 0 -22.5 -9.5t-9.5 -22.5t9.5 -22.5t22.5 -9.5h320q13 0 22.5 9.5t9.5 22.5t-9.5 22.5t-22.5 9.5h-128v128v1q66 10 123 60.5t97 131.5l2 -1h2q85 0 138.5 62.5t53.5 161.5q0 13 -9.5 22.5t-22.5 9.5zM130 544h72q11 -67 31 -126q-41 8 -68.5 41.5t-34.5 84.5zM791 418
q20 58 31 126h72q-7 -51 -34.5 -84.5t-68.5 -41.5z" />
    <glyph glyph-name="uniE689" unicode="&#xe689;" 
d="M928 608h-99q3 37 3 67q0 29 -3 63q0 12 -9.5 20.5t-21.5 8.5h-571q-13 0 -22 -8.5t-10 -20.5q-3 -35 -3 -63q0 -30 3 -67h-99q-13 0 -22.5 -9.5t-9.5 -22.5q0 -99 53.5 -161.5t138.5 -62.5q1 0 2.5 0.5t2.5 0.5q39 -81 96 -131.5t123 -60.5v-1v-128h-128
q-13 0 -22.5 -9.5t-9.5 -22.5t9.5 -22.5t22.5 -9.5h320q13 0 22.5 9.5t9.5 22.5t-9.5 22.5t-22.5 9.5h-128v128v1q66 10 123 60.5t97 131.5l2 -1h2q85 0 138.5 62.5t53.5 161.5q0 13 -9.5 22.5t-22.5 9.5zM130 544h72q11 -67 31 -126q-41 8 -68.5 41.5t-34.5 84.5zM512 223
q-68 0 -127 61.5t-94 165.5t-35 225q0 14 1 28h510q1 -15 1 -28q0 -121 -35 -225t-94 -165.5t-127 -61.5zM791 418q20 58 31 126h72q-7 -51 -34.5 -84.5t-68.5 -41.5z" />
    <glyph glyph-name="uniE68A" unicode="&#xe68a;" 
d="M512 832q-185 0 -316.5 -131.5t-131.5 -316.5t131.5 -316.5t316.5 -131.5t316.5 131.5t131.5 316.5t-131.5 316.5t-316.5 131.5zM657 192h47q13 0 22.5 -9.5t9.5 -22.5t-9.5 -22.5t-22.5 -9.5h-64q-5 0 -11 2l-2 1q-5 2 -9 6v1q-1 0 -1 1q-3 3 -4 3l-118 178h-79v-128h32
q13 0 22.5 -9.5t9.5 -22.5t-9.5 -22.5t-22.5 -9.5h-128q-13 0 -22.5 9.5t-9.5 22.5t9.5 22.5t22.5 9.5h32v288q0 13 9.5 22.5t22.5 9.5t22.5 -9.5t9.5 -22.5v-96h160q40 0 68 28t28 68t-28 68t-68 28h-256q-13 0 -22.5 9.5t-9.5 22.5t9.5 22.5t22.5 9.5h256q66 0 113 -47
t47 -113t-47 -113t-113 -47h-4z" />
    <glyph glyph-name="uniE68B" unicode="&#xe68b;" 
d="M512 832q-185 0 -316.5 -131.5t-131.5 -316.5t131.5 -316.5t316.5 -131.5t316.5 131.5t131.5 316.5t-131.5 316.5t-316.5 131.5zM512 0q-159 0 -271.5 112.5t-112.5 271.5t112.5 271.5t271.5 112.5t271.5 -112.5t112.5 -271.5t-112.5 -271.5t-271.5 -112.5zM736 480
q0 66 -47 113t-113 47h-256q-13 0 -22.5 -9.5t-9.5 -22.5t9.5 -22.5t22.5 -9.5h256q40 0 68 -28t28 -68t-28 -68t-68 -28h-160v96q0 13 -9.5 22.5t-22.5 9.5t-22.5 -9.5t-9.5 -22.5v-288h-32q-13 0 -22.5 -9.5t-9.5 -22.5t9.5 -22.5t22.5 -9.5h128q13 0 22.5 9.5t9.5 22.5
t-9.5 22.5t-22.5 9.5h-32v128h79l118 -178q1 0 4 -3q0 -1 1 -1v-1q4 -4 9 -6l2 -1q6 -2 11 -2h64q13 0 22.5 9.5t9.5 22.5t-9.5 22.5t-22.5 9.5h-47l-85 128h4q66 0 113 47t47 113z" />
    <glyph glyph-name="uniE68C" unicode="&#xe68c;" 
d="M960 535l-104 246q-8 19 -30 19h-594q-19 0 -28 -16l-133 -243q-11 -18 3 -35l417 -525q10 -13 26 -13q15 0 25 13l414 521q12 15 4 33zM800 480h-256v-416q0 -13 -9.5 -22.5t-22.5 -9.5t-22.5 9.5t-9.5 22.5v416h-256q-13 0 -22.5 9.5t-9.5 22.5t9.5 22.5t22.5 9.5h203
l-160 136q-10 8 -11 21.5t7.5 23.5t22 11t23.5 -8l205 -174l201 174q10 9 23.5 8t22 -11t7.5 -23.5t-11 -21.5l-157 -136h200q13 0 22.5 -9.5t9.5 -22.5t-9.5 -22.5t-22.5 -9.5z" />
    <glyph glyph-name="uniE68D" unicode="&#xe68d;" 
d="M960 535l-104 246q-8 19 -30 19h-594q-19 0 -28 -16l-133 -243q-11 -18 3 -35l417 -525q10 -13 26 -13q15 0 25 13l414 521q12 15 4 33zM742 736l-226 -182l-208 182h434zM238 713l192 -169h-206q-13 0 -22.5 -9.5t-9.5 -22.5t9.5 -22.5t22.5 -9.5h256v-382l-343 431z
M544 87v393h256q13 0 22.5 9.5t9.5 22.5t-9.5 22.5t-22.5 9.5h-195l210 169l79 -186z" />
    <glyph glyph-name="uniE68E" unicode="&#xe68e;" 
d="M512 722q-89 0 -169.5 -34.5t-138.5 -92.5t-92.5 -138.5t-34.5 -169t34.5 -169.5t92.5 -139t138.5 -92.5t169.5 -34.5t169.5 34.5t138.5 92.5t92.5 139t34.5 169.5t-34.5 169t-92.5 138.5t-138.5 92.5t-169.5 34.5zM513 531q23 0 39 -16t16 -39t-16 -39t-39 -16t-39 16
t-16 39t16 39t39 16zM561 51h-39q-15 0 -28 11t-13 23v222h-14q-15 0 -25.5 10.5t-10.5 26t10.5 26t25.5 10.5h46q32 -2 32 -25v-231h16q15 0 25.5 -10.5t10.5 -25.5t-10.5 -26t-25.5 -11zM561 51z" />
    <glyph glyph-name="uniE68F" unicode="&#xe68f;" 
d="M942 739q-1 -11 -3 -29t-6 -66.5t-4 -89.5t7 -83.5t22 -62.5q-5 -1 -12.5 -4t-34 -18t-55.5 -36.5t-75 -64t-94 -96.5t-111 -138t-127 -184q-1 -2 -9 8t-24.5 30t-39 45.5t-55.5 56.5t-70 61t-86.5 61.5t-101.5 55.5q-2 1 60 39.5t125 75.5l64 38l122 -237q0 7 46 98
q152 299 340 457q61 51 122 83z" />
    <glyph glyph-name="uniE690" unicode="&#xe690;" 
d="M864 640q-15 0 -24 10t-8.5 23.5t10.5 21.5l33 30q10 9 23 8t22 -10.5t8 -23t-10 -22.5l-33 -29q-9 -8 -21 -8zM160 640q-12 0 -21 8l-33 29q-9 9 -10 22.5t8 23t22 10.5t23 -8l33 -30q10 -8 10.5 -21.5t-8.5 -23.5t-24 -10zM512 768q-13 0 -22.5 9.5t-9.5 22.5v32
q0 13 9.5 22.5t22.5 9.5t22.5 -9.5t9.5 -22.5v-32q0 -13 -9.5 -22.5t-22.5 -9.5zM512 746q-87 0 -160.5 -42.5t-116.5 -116.5t-43 -161q0 -31 7.5 -62t16.5 -51.5t21.5 -40t17.5 -26t9 -10.5q22 -25 39 -68.5t17 -76.5v-56q0 -53 37.5 -90.5t90.5 -37.5h128q53 0 90.5 37.5
t37.5 90.5v56q0 33 17 76.5t39 68.5q4 4 9.5 10.5t17.5 26t21 40t16.5 51.5t7.5 62q0 87 -43 161t-116.5 116.5t-160.5 42.5zM576 32h-128q-13 0 -22.5 9.5t-9.5 22.5t9.5 22.5t22.5 9.5h128q13 0 22.5 -9.5t9.5 -22.5t-9.5 -22.5t-22.5 -9.5zM650 322q-5 -2 -10 -2
q-23 0 -30 22l-16 47l-59 -60q-10 -9 -23 -9t-23 9l-59 60l-16 -47q-4 -13 -16 -19t-24.5 -1.5t-18.5 16.5t-1 24l32 96q5 17 22.5 21t30.5 -8l73 -74l73 74q13 12 30.5 8t22.5 -21l32 -96q5 -12 -1 -24t-19 -16z" />
    <glyph glyph-name="uniE691" unicode="&#xe691;" 
d="M576 -93h-128q-53 0 -90.5 37.5t-37.5 90.5v56q0 33 -17 76.5t-39 68.5q-4 4 -9 10.5t-17.5 26t-21.5 40t-16.5 51.5t-7.5 62q0 87 43 161t116.5 116.5t160.5 42.5t160.5 -42.5t116.5 -116.5t43 -161q0 -31 -7.5 -62t-16.5 -51.5t-21.5 -40t-17.5 -26t-9 -10.5
q-22 -25 -39 -68.5t-17 -76.5v-56q0 -53 -37.5 -90.5t-90.5 -37.5zM512 682q-106 0 -181 -75t-75 -181q0 -38 15 -76t24.5 -51.5t15.5 -19.5q31 -33 52 -88t21 -100v-56q0 -26 19 -45t45 -19h128q26 0 45 19t19 45v56q0 45 21 100t52 88q7 8 16 20.5t24 50.5t15 76
q0 106 -75 181t-181 75zM640 320q-23 0 -30 22l-16 47l-59 -60q-10 -9 -23 -9t-23 9l-59 60l-16 -47q-4 -13 -16 -19t-24.5 -1.5t-18.5 16.5t-1 24l32 96q5 17 22.5 21t30.5 -8l73 -74l73 74q13 12 30.5 8t22.5 -21l32 -96q5 -12 -1 -24t-19 -16q-5 -2 -10 -2zM864 640
q-15 0 -24 10t-8.5 23.5t10.5 21.5l33 30q10 9 23 8t22 -10.5t8 -23t-10 -22.5l-33 -29q-9 -8 -21 -8zM160 640q-12 0 -21 8l-33 29q-9 9 -10 22.5t8 23t22 10.5t23 -8l33 -30q10 -8 10.5 -21.5t-8.5 -23.5t-24 -10zM512 768q-13 0 -22.5 9.5t-9.5 22.5v32q0 13 9.5 22.5
t22.5 9.5t22.5 -9.5t9.5 -22.5v-32q0 -13 -9.5 -22.5t-22.5 -9.5zM576 32h-128q-13 0 -22.5 9.5t-9.5 22.5t9.5 22.5t22.5 9.5h128q13 0 22.5 -9.5t9.5 -22.5t-9.5 -22.5t-22.5 -9.5z" />
    <glyph glyph-name="uniE692" unicode="&#xe692;" 
d="M864 480q0 146 -103 249t-249 103t-249 -103t-103 -249q0 -137 92.5 -237.5t227.5 -112.5v-2v-64h-128q-13 0 -22.5 -9.5t-9.5 -22.5t9.5 -22.5t22.5 -9.5h128v-32q0 -13 9.5 -22.5t22.5 -9.5t22.5 9.5t9.5 22.5v32h128q13 0 22.5 9.5t9.5 22.5t-9.5 22.5t-22.5 9.5h-128
v64v2q135 12 227.5 112.5t92.5 237.5zM512 192q-119 0 -203.5 84.5t-84.5 203.5t84.5 203.5t203.5 84.5t203.5 -84.5t84.5 -203.5t-84.5 -203.5t-203.5 -84.5z" />
    <glyph glyph-name="uniE693" unicode="&#xe693;" 
d="M736 544q-13 0 -22.5 -9.5t-9.5 -22.5v-96h-96q-13 0 -22.5 -9.5t-9.5 -22.5t9.5 -22.5t22.5 -9.5h128q13 0 22.5 9.5t9.5 22.5v128q0 13 -9.5 22.5t-22.5 9.5zM736 224h-448q-13 0 -22.5 9.5t-9.5 22.5t9.5 22.5t22.5 9.5h448q13 0 22.5 -9.5t9.5 -22.5t-9.5 -22.5
t-22.5 -9.5zM480 352h-32q-13 0 -22.5 9.5t-9.5 22.5t9.5 22.5t22.5 9.5h32q13 0 22.5 -9.5t9.5 -22.5t-9.5 -22.5t-22.5 -9.5zM320 352h-32q-13 0 -22.5 9.5t-9.5 22.5t9.5 22.5t22.5 9.5h32q13 0 22.5 -9.5t9.5 -22.5t-9.5 -22.5t-22.5 -9.5zM480 480h-32q-13 0 -22.5 9.5
t-9.5 22.5t9.5 22.5t22.5 9.5h32q13 0 22.5 -9.5t9.5 -22.5t-9.5 -22.5t-22.5 -9.5zM640 480h-32q-13 0 -22.5 9.5t-9.5 22.5t9.5 22.5t22.5 9.5h32q13 0 22.5 -9.5t9.5 -22.5t-9.5 -22.5t-22.5 -9.5zM320 480h-32q-13 0 -22.5 9.5t-9.5 22.5t9.5 22.5t22.5 9.5h32
q13 0 22.5 -9.5t9.5 -22.5t-9.5 -22.5t-22.5 -9.5zM512 -61q-91 0 -174 35.5t-143 95.5t-95.5 143t-35.5 174t35.5 174t95.5 143t143 95.5t174 35.5t174 -35.5t143 -95.5t95.5 -143t35.5 -174t-35.5 -174t-95.5 -143t-143 -95.5t-174 -35.5zM512 771q-104 0 -192.5 -51.5
t-140 -140t-51.5 -192.5t51.5 -192.5t140 -140t192.5 -51.5t192.5 51.5t140 140t51.5 192.5t-51.5 192.5t-140 140t-192.5 51.5z" />
    <glyph glyph-name="uniE694" unicode="&#xe694;" 
d="M927 775l-1 4q-1 2 -4 6q0 1 -0.5 2.5t-1.5 1.5v1h-1q-1 1 -5 4l-5 3q-6 3 -13 3h-224q-13 0 -22.5 -9.5t-9.5 -22.5t9.5 -22.5t22.5 -9.5h139l-152 -135q-94 71 -211 71q-146 0 -249 -103t-103 -249t103 -249t249 -103t249 103t103 249q0 137 -94 238l158 139v-121
q0 -13 9.5 -22.5t22.5 -9.5t22.5 9.5t9.5 22.5v192q0 1 -1 7zM736 320q0 -119 -84.5 -203.5t-203.5 -84.5t-203.5 84.5t-84.5 203.5t84.5 203.5t203.5 84.5t203.5 -84.5t84.5 -203.5z" />
    <glyph glyph-name="uniE695" unicode="&#xe695;" 
d="M512 -64q-185 0 -316.5 131.5t-131.5 316.5t131.5 316.5t316.5 131.5t316.5 -131.5t131.5 -316.5t-131.5 -316.5t-316.5 -131.5zM512 768q-159 0 -271.5 -112.5t-112.5 -271.5t112.5 -271.5t271.5 -112.5t271.5 112.5t112.5 271.5t-112.5 271.5t-271.5 112.5zM290 372
l1 -1q2 -6 6 -10v0l159 -159q10 -10 23 -10t22.5 9.5t9.5 22.5t-9 23l-104 103h305q14 0 23 9.5t9 23t-9 22.5t-23 9h-306l106 105q9 10 9 23t-9 22.5t-23 9.5q-13 0 -22 -9l-161 -159q-15 -15 -7 -34z" />
    <glyph glyph-name="uniE696" unicode="&#xe696;" 
d="M512 -64q-185 0 -316.5 131.5t-131.5 316.5t131.5 316.5t316.5 131.5t316.5 -131.5t131.5 -316.5t-131.5 -316.5t-316.5 -131.5zM512 768q-159 0 -271.5 -112.5t-112.5 -271.5t112.5 -271.5t271.5 -112.5t271.5 112.5t112.5 271.5t-112.5 271.5t-271.5 112.5zM733 395
q-3 6 -7 10v0l-159 160q-9 9 -22.5 9t-23 -9t-9.5 -22.5t10 -22.5l103 -104h-305q-13 0 -22.5 -9.5t-9.5 -22.5t9.5 -22.5t22.5 -9.5h307l-106 -105q-10 -9 -10 -22.5t9.5 -23t22.5 -9.5t23 10l160 158q15 15 7 35z" />
    <glyph glyph-name="uniE697" unicode="&#xe697;" 
d="M288 608h-128q-13 0 -22.5 -9.5t-9.5 -22.5v-544q0 -13 9.5 -22.5t22.5 -9.5h128q13 0 22.5 9.5t9.5 22.5v544q0 13 -9.5 22.5t-22.5 9.5zM576 416h-128q-13 0 -22.5 -9.5t-9.5 -22.5v-352q0 -13 9.5 -22.5t22.5 -9.5h128q13 0 22.5 9.5t9.5 22.5v352q0 13 -9.5 22.5
t-22.5 9.5zM864 768h-128q-13 0 -22.5 -9.5t-9.5 -22.5v-704q0 -13 9.5 -22.5t22.5 -9.5h128q13 0 22.5 9.5t9.5 22.5v704q0 13 -9.5 22.5t-22.5 9.5z" />
    <glyph glyph-name="uniE698" unicode="&#xe698;" 
d="M288 0h-128q-13 0 -22.5 9.5t-9.5 22.5v544q0 13 9.5 22.5t22.5 9.5h128q13 0 22.5 -9.5t9.5 -22.5v-544q0 -13 -9.5 -22.5t-22.5 -9.5zM192 64h64v480h-64v-480zM576 0h-128q-13 0 -22.5 9.5t-9.5 22.5v352q0 13 9.5 22.5t22.5 9.5h128q13 0 22.5 -9.5t9.5 -22.5v-352
q0 -13 -9.5 -22.5t-22.5 -9.5zM480 64h64v288h-64v-288zM864 0h-128q-13 0 -22.5 9.5t-9.5 22.5v704q0 13 9.5 22.5t22.5 9.5h128q13 0 22.5 -9.5t9.5 -22.5v-704q0 -13 -9.5 -22.5t-22.5 -9.5zM768 64h64v640h-64v-640z" />
    <glyph glyph-name="uniE699" unicode="&#xe699;" 
d="M870 181v281h-219v251h-282v-188h-219v-344h-63v-126h846v126h-63zM839 431v-250h-188v250h188zM400 682h220v-220v-281h-220v344v157zM181 494h188v-313h-188v313zM902 87h-783v62h31h219h31h220h31h219h32v-62z" />
    <glyph glyph-name="uniE69A" unicode="&#xe69a;" 
d="M508.5 808q-113.5 0 -210 -56.5t-152.5 -153.5t-56 -211.5t56 -212t152.5 -154t210 -56.5t209.5 56.5t152.5 154t56.5 212t-56.5 211.5t-152.5 153.5t-209.5 56.5zM508 -4q-127 0 -230 77q19 7 53 20q77 27 89 35q32 20 23 112v6l-16 14q-4 37 -13 51q-12 21 -30 77l-2 5
l-4 3q-9 8 -9 20t9 19l8 6l-2 10q-12 64 -12 94q0 34 14.5 58.5t38.5 35t46 15t46 4.5q25 0 45.5 -5t40.5 -16.5t31.5 -35t11.5 -56.5q0 -42 -6 -95l-1 -9l7 -6q10 -7 10 -19q0 -11 -10 -20l-4 -3l-1 -5q-15 -46 -31 -78q-8 -14 -12 -50l-16 -14l-1 -6q-8 -92 23 -112
q13 -8 91 -32l52 -16q-105 -84 -239 -84zM775 104q-16 6 -71 23q-73 22 -82 28q-6 4 -8.5 26.5t-0.5 49.5l15 14l1 6q4 34 9 44q15 29 32 79q18 18 18 42q0 21 -15 38q5 56 5 91q0 69 -42 107t-119 38q-84 0 -130.5 -38t-46.5 -107q0 -36 11 -92q-15 -16 -15 -37
q0 -24 19 -42q19 -58 32 -79q5 -10 8 -44l1 -6l16 -14q2 -27 -1 -49.5t-8 -26.5q-10 -6 -83 -32q-55 -20 -70 -27q-60 55 -94 130.5t-34 159.5q0 106 52 196t141 142t193.5 52t193.5 -52t140.5 -142t51.5 -196q0 -82 -31.5 -155t-87.5 -127z" />
    <glyph glyph-name="uniE69B" unicode="&#xe69b;" 
d="M480 544q-79 0 -135.5 -56.5t-56.5 -135.5t56.5 -135.5t135.5 -56.5t135.5 56.5t56.5 135.5t-56.5 135.5t-135.5 56.5zM480 224q-53 0 -90.5 37.5t-37.5 90.5t37.5 90.5t90.5 37.5t90.5 -37.5t37.5 -90.5t-37.5 -90.5t-90.5 -37.5zM576 64h-416q-13 0 -22.5 9.5
t-9.5 22.5v512q0 13 9.5 22.5t22.5 9.5h96q13 0 22.5 9.5t9.5 22.5t-9.5 22.5t-22.5 9.5h-96q-40 0 -68 -28t-28 -68v-512q0 -40 28 -68t68 -28h416q13 0 22.5 9.5t9.5 22.5t-9.5 22.5t-22.5 9.5zM512 640h320q13 0 22.5 -9.5t9.5 -22.5v-256q0 -13 9.5 -22.5t22.5 -9.5
t22.5 9.5t9.5 22.5v256q0 40 -28 68t-68 28h-320q-13 0 -22.5 -9.5t-9.5 -22.5t9.5 -22.5t22.5 -9.5zM784 560zM736 560q0 20 14 34t34 14t34 -14t14 -34t-14 -34t-34 -14t-34 14t-14 34zM320 736h128q13 0 22.5 9.5t9.5 22.5t-9.5 22.5t-22.5 9.5h-128q-13 0 -22.5 -9.5
t-9.5 -22.5t9.5 -22.5t22.5 -9.5zM960 128h-96v96q0 13 -9.5 22.5t-22.5 9.5t-22.5 -9.5t-9.5 -22.5v-96h-96q-13 0 -22.5 -9.5t-9.5 -22.5t9.5 -22.5t22.5 -9.5h96v-96q0 -13 9.5 -22.5t22.5 -9.5t22.5 9.5t9.5 22.5v96h96q13 0 22.5 9.5t9.5 22.5t-9.5 22.5t-22.5 9.5z
" />
    <glyph glyph-name="uniE69C" unicode="&#xe69c;" 
d="M512 512q-53 0 -90.5 -37.5t-37.5 -90.5t37.5 -90.5t90.5 -37.5t90.5 37.5t37.5 90.5t-37.5 90.5t-90.5 37.5zM512 320q-26 0 -45 19t-19 45t19 45t45 19t45 -19t19 -45t-19 -45t-45 -19zM928 416h-1q-12 153 -121 262t-262 121v1q0 13 -9.5 22.5t-22.5 9.5t-22.5 -9.5
t-9.5 -22.5v-1q-153 -12 -262 -121t-121 -262h-1q-13 0 -22.5 -9.5t-9.5 -22.5t9.5 -22.5t22.5 -9.5h1q12 -153 121 -262t262 -121v-1q0 -13 9.5 -22.5t22.5 -9.5t22.5 9.5t9.5 22.5v1q153 12 262 121t121 262h1q13 0 22.5 9.5t9.5 22.5t-9.5 22.5t-22.5 9.5zM544 33v63
q0 13 -9.5 22.5t-22.5 9.5t-22.5 -9.5t-9.5 -22.5v-63q-127 11 -217.5 101.5t-101.5 217.5h63q13 0 22.5 9.5t9.5 22.5t-9.5 22.5t-22.5 9.5h-63q11 127 101.5 217.5t217.5 101.5v-63q0 -13 9.5 -22.5t22.5 -9.5t22.5 9.5t9.5 22.5v63q127 -11 217.5 -101.5t101.5 -217.5
h-63q-13 0 -22.5 -9.5t-9.5 -22.5t9.5 -22.5t22.5 -9.5h63q-11 -127 -101.5 -217.5t-217.5 -101.5z" />
    <glyph glyph-name="uniE69D" unicode="&#xe69d;" 
d="M519 242v7q22 15 38 34.5t25 43.5t15 44t8 49.5t2.5 46.5t0.5 47v14q0 98 -56 153.5t-155 55.5h-6q-95 0 -146 -54t-51 -155q0 -30 1 -49t6.5 -56.5t15.5 -64.5t31 -57.5t50 -51.5v-6q-63 -9 -114 -27t-85 -49t-34 -68q0 -162 329 -162q82 0 144.5 10t99.5 25.5t60 37.5
t31 43t8 46q0 29 -22 55t-58 43t-70 27.5t-68 17.5zM930 128q-13 0 -22.5 9.5t-9.5 22.5q-1 12 -29.5 33.5t-76 41t-92.5 25.5q-12 1 -20 10t-8 21v67q0 15 12 25q41 32 68 94.5t27 124.5q0 39 -12 66.5t-33.5 41t-43.5 19.5t-48 6q-13 0 -22.5 9t-9.5 22.5t9.5 23t22.5 9.5
q93 0 147 -53t54 -144q0 -71 -30 -143t-77 -116v-25q49 -10 99 -32t88.5 -56.5t38.5 -69.5q0 -13 -9.5 -22.5t-22.5 -9.5z" />
    <glyph glyph-name="uniE69E" unicode="&#xe69e;" 
d="M832 704h-320q0 40 -28 68t-68 28h-64q-40 0 -68 -28t-28 -68h-96q-40 0 -68 -28t-28 -68v-512q0 -40 28 -68t68 -28h418q14 0 23.5 10.5t8 25t-1.5 25.5q0 70 38.5 127t104 82.5t137.5 7.5q15 -4 27.5 5.5t12.5 25.5v299q0 40 -28 68t-68 28zM480 160q-79 0 -135.5 56.5
t-56.5 135.5t56.5 135.5t135.5 56.5t135.5 -56.5t56.5 -135.5t-56.5 -135.5t-135.5 -56.5zM784 480q-20 0 -34 14t-14 34t14 34t34 14t34 -14t14 -34t-14 -34t-34 -14zM832 222q-66 0 -113 -47t-47 -113t47 -113t113 -47t113 47t47 113t-47 113t-113 47zM896 32h-32v-32
q0 -13 -9.5 -22.5t-22.5 -9.5t-22.5 9.5t-9.5 22.5v32h-32q-13 0 -22.5 9.5t-9.5 22.5t9.5 22.5t22.5 9.5h32v32q0 13 9.5 22.5t22.5 9.5t22.5 -9.5t9.5 -22.5v-32h32q13 0 22.5 -9.5t9.5 -22.5t-9.5 -22.5t-22.5 -9.5z" />
    <glyph glyph-name="uniE69F" unicode="&#xe69f;" 
d="M542 665q-12 -9 -30 -9t-31 9l-143 93q-12 9 -26 5t-20 -17l-35 -69q-6 -13 0 -22.5t21 -9.5h471q16 0 21.5 9.5t-1.5 22.5l-36 69q-7 13 -21 17t-26 -5zM835 32v426q0 15 -15 15h-283v-474h266q15 0 23.5 10.5t8.5 22.5zM224 -1h260v474h-279q-7 0 -11 -4.5t-4 -10.5
v-213v-213q0 -16 10.5 -24.5t23.5 -8.5zM125 610v-103q0 -7 4.5 -11.5t11.5 -4.5h343v134h-343q-16 0 -16 -15zM882 625h-345v-134h347q6 0 10.5 4.5t4.5 11.5v103q0 5 -4 10t-13 5z" />
    <glyph glyph-name="uniE6A0" unicode="&#xe6a0;" horiz-adv-x="1608" 
d="M843 751q-17 -11 -41 -11t-41 11l-191 125q-17 11 -35.5 6.5t-27.5 -23.5l-46 -91q-9 -18 -1 -31t29 -13h631q21 0 28.5 12.5t-1.5 30.5l-49 93q-9 18 -27.5 22.5t-35.5 -6.5zM1235 -96v514q0 10 -5.5 16t-14.5 6h-347v-580h324q21 0 32 14t11 30zM416 -140h335v580h-360
q-9 0 -14.5 -6.5t-5.5 -15.5q0 -6 -0.5 -258t-0.5 -256q0 -22 14.5 -33t31.5 -11zM285 634v-105q0 -8 6 -14.5t14 -6.5h446v147h-446q-9 0 -14.5 -6t-5.5 -15zM1298 655h-430v-147h432q8 0 14.5 6.5t6.5 14.5v105q0 7 -5.5 14t-17.5 7zM1298 655z" />
    <glyph glyph-name="uniE6A1" unicode="&#xe6a1;" 
d="M472 624l-399 -400q-17 -16 -17 -39.5t16.5 -40t40 -16.5t40.5 16l359 360l359 -360q17 -16 40.5 -16t40 16.5t16.5 40t-17 39.5l-399 400q-17 16 -40 16t-40 -16z" />
    <glyph glyph-name="uniE6A2" unicode="&#xe6a2;" 
d="M472 144l-399 400q-17 16 -17 39.5t16.5 40t40 16.5t40.5 -16l359 -360l359 360q17 16 40.5 16t40 -16.5t16.5 -40t-17 -39.5l-399 -400q-17 -16 -40 -16t-40 16z" />
    <glyph glyph-name="uniE6A3" unicode="&#xe6a3;" 
d="M387 416h-192q-39 0 -67.5 28.5t-28.5 67.5v192q0 40 28.5 68t67.5 28h192q40 0 68 -28t28 -68v-192q0 -39 -28 -67.5t-68 -28.5zM195 736q-13 0 -22.5 -9t-9.5 -23v-192q0 -13 9.5 -22.5t22.5 -9.5h192q13 0 22.5 9.5t9.5 22.5v192q0 14 -9.5 23t-22.5 9h-192zM387 -32
h-192q-39 0 -67.5 28.5t-28.5 67.5v192q0 40 28.5 68t67.5 28h192q40 0 68 -28t28 -68v-192q0 -39 -28 -67.5t-68 -28.5zM195 288q-13 0 -22.5 -9t-9.5 -23v-192q0 -13 9.5 -22.5t22.5 -9.5h192q13 0 22.5 9.5t9.5 22.5v192q0 14 -9.5 23t-22.5 9h-192zM832 416h-192
q-40 0 -68 28.5t-28 67.5v192q0 40 28 68t68 28h192q40 0 68 -28t28 -68v-192q0 -39 -28 -67.5t-68 -28.5zM640 736q-13 0 -22.5 -9t-9.5 -23v-192q0 -13 9.5 -22.5t22.5 -9.5h192q13 0 22.5 9.5t9.5 22.5v192q0 14 -9.5 23t-22.5 9h-192zM832 -32h-192q-40 0 -68 28.5
t-28 67.5v192q0 40 28 68t68 28h192q40 0 68 -28t28 -68v-192q0 -39 -28 -67.5t-68 -28.5zM640 288q-13 0 -22.5 -9t-9.5 -23v-192q0 -13 9.5 -22.5t22.5 -9.5h192q13 0 22.5 9.5t9.5 22.5v192q0 14 -9.5 23t-22.5 9h-192z" />
    <glyph glyph-name="uniE6A4" unicode="&#xe6a4;" 
d="M992 395q0 40 -28 68l-375 375q-27 27 -68 27t-68 -27l-136 -136q-28 -28 -28 -68t28 -68l375 -375q28 -28 68 -28t68 28l35 36l26 -27q9 -9 9.5 -22t-7.5 -21l-96 -82q-9 -10 -22.5 -10t-22.5 10l-246 246l-3 3q-28 28 -67.5 28t-68.5 -28l-9 -10l-62 62q-9 9 -22 9
t-23 -9l-19 -20l-139 -139q-28 -28 -28 -67.5t28 -67.5l113 -114q28 -28 67.5 -28t68.5 28l139 139l19 20q9 9 9 22.5t-9 22.5l-97 97l10 9q9 10 22.5 10t22.5 -10l3 -3l246 -246q28 -28 68 -28q39 0 66 27l96 82q28 28 28 67.5t-28 68.5l-27 26l56 55q28 28 28 68z
M866.5 369q-9.5 -9 -22.5 -9t-23 9l-322 329q-10 10 -9.5 23t10 22.5t22.5 9.5t22 -10l323 -329q9 -9 9 -22.5t-9.5 -22.5z" />
    <glyph glyph-name="uniE6A5" unicode="&#xe6a5;" 
d="M992 361q0 40 -28 68l-375 375q-27 27 -68 27t-68 -27l-136 -136q-28 -28 -28 -68t28 -68l375 -375q28 -28 68 -28t68 28l35 36l26 -27q9 -9 9.5 -22t-7.5 -21l-96 -82q-9 -10 -22.5 -10t-22.5 10l-246 246l-3 3q-28 28 -67.5 28t-68.5 -28l-9 -10l-62 62q-9 9 -22 9
t-23 -9l-22 -23l-136 -136q-28 -28 -28 -67.5t28 -67.5l113 -114q28 -28 67.5 -28t68.5 28l135 136l23 23q9 9 9 22.5t-9 22.5l-97 97l10 10q9 9 22.5 9t22.5 -10v1l3 -4l246 -246q28 -28 68 -28q39 0 66 27l95 82q29 28 29 67.5t-28 68.5l-27 26l56 55q28 28 28 68zM362 47
l-68 -67q-9 -10 -22.5 -10t-22.5 10l-113 113q-9 9 -9 22.5t9 22.5l68 68l68 68l158 -159zM918 338l-135 -136q-9 -9 -23 -9t-23 10l-374 375q-10 9 -10 22.5t10 22.5l135 136q10 9 23 9t23 -9l374 -376q10 -9 10 -22t-10 -23zM544 709q-9 10 -22 10t-22.5 -9.5t-10 -22.5
t9.5 -22l322 -330q10 -9 23 -9t22.5 9t9.5 22.5t-9 22.5z" />
    <glyph glyph-name="uniE6A6" unicode="&#xe6a6;" 
d="M843 768h-662q-48 0 -82.5 -34.5t-34.5 -82.5v-534q0 -48 34.5 -82.5t82.5 -34.5h662q48 0 82.5 34.5t34.5 82.5v534q0 48 -34.5 82.5t-82.5 34.5zM288 608q27 0 45.5 -18.5t18.5 -45.5t-18.5 -45.5t-45.5 -18.5t-45.5 18.5t-18.5 45.5t18.5 45.5t45.5 18.5zM832 160
q0 -13 -9.5 -22t-22.5 -9l-574 -1q-17 0 -26 12q-10 13 -5 29q3 9 8 22.5t21.5 44.5t35.5 54.5t50 42.5t65 19q38 -1 96 -18q68 -20 110 -14q14 3 22.5 17.5t20.5 52.5q8 26 13.5 40.5t19.5 39t30.5 38t45.5 24.5t65 11q14 0 23 -9.5t9 -22.5l2 -127v-224z" />
    <glyph glyph-name="uniE6A7" unicode="&#xe6a7;" 
d="M822.5 374.5q-9.5 9.5 -22.5 9.5t-23 -9l-233 -234v563q0 13 -9.5 22.5t-22.5 9.5t-22.5 -9.5t-9.5 -22.5v-563l-233 234q-10 9 -23 9t-22.5 -9.5t-9.5 -22.5t9 -23l288 -288q5 -4 11 -6.5t12 -2.5t12 2.5t11 6.5l288 288q9 10 9 23t-9.5 22.5z" />
    <glyph glyph-name="uniE6A8" unicode="&#xe6a8;" 
d="M512 832q-185 0 -316.5 -112.5t-131.5 -271.5q0 -137 100.5 -242.5t256.5 -133.5l65 -91q10 -13 26 -13t26 13l65 91q156 28 256.5 133.5t100.5 242.5q0 159 -131.5 271.5t-316.5 112.5zM288.5 384q-26.5 0 -45.5 19t-19 45t19 45t45.5 19t45 -19t18.5 -45t-18.5 -45
t-45 -19zM512.5 384q-26.5 0 -45.5 19t-19 45t19 45t45.5 19t45 -19t18.5 -45t-18.5 -45t-45 -19zM736.5 384q-26.5 0 -45.5 19t-19 45t19 45t45.5 19t45 -19t18.5 -45t-18.5 -45t-45 -19z" />
    </font>
</defs>
</svg>
